<svg version="1.1" xmlns="http://www.w3.org/2000/svg" viewBox="0 0 677.9971730177149 1167.23404199279" width="2033.9915190531447" height="3501.70212597837">
  <!-- svg-source:excalidraw -->
  
  <defs>
    <style class="style-fonts">
      @font-face {
        font-family: "Virgil";
        src: url("https://excalidraw.com/Virgil.woff2");
      }
      @font-face {
        font-family: "Cascadia";
        src: url("https://excalidraw.com/Cascadia.woff2");
      }
      @font-face {
        font-family: "Assistant";
        src: url("https://excalidraw.com/Assistant-Regular.woff2");
      }
    </style>
    
  </defs>
  <rect x="0" y="0" width="677.9971730177149" height="1167.23404199279" fill="#ffffff"></rect><g stroke-opacity="0" fill-opacity="0" stroke-linecap="round" transform="translate(64.18445312943732 10) rotate(0 58.378661581835786 58.378661581835615)"><path d="M52.79 0.44 C61.18 -1.14, 71.17 1.81, 79.51 5.16 C87.85 8.52, 96.69 13.9, 102.83 20.59 C108.97 27.27, 114.44 36.53, 116.32 45.28 C118.21 54.03, 116.48 64.16, 114.12 73.09 C111.76 82.02, 108.06 91.97, 102.14 98.84 C96.22 105.7, 87.31 111.45, 78.61 114.27 C69.92 117.1, 59.04 117.22, 49.95 115.77 C40.86 114.32, 31.47 110.8, 24.06 105.57 C16.64 100.33, 9.39 92.43, 5.46 84.37 C1.53 76.32, 0.25 66.15, 0.49 57.24 C0.73 48.32, 2.63 38.96, 6.91 30.86 C11.19 22.77, 17.93 13.89, 26.16 8.64 C34.38 3.4, 50.68 0.66, 56.28 -0.62 C61.89 -1.9, 59.85 -0.16, 59.8 0.96 M36.55 5.09 C44.42 1.07, 55.26 1.02, 64.13 1.47 C72.99 1.92, 82.31 3.12, 89.71 7.8 C97.11 12.47, 104.23 21.14, 108.52 29.51 C112.8 37.87, 115.23 48.82, 115.42 57.98 C115.6 67.14, 113.4 76.57, 109.62 84.47 C105.83 92.36, 99.98 100.2, 92.71 105.35 C85.45 110.51, 74.93 114.18, 66.04 115.42 C57.15 116.66, 47.84 115.81, 39.38 112.82 C30.92 109.83, 21.3 103.82, 15.28 97.49 C9.26 91.17, 5.6 83.3, 3.25 74.88 C0.9 66.46, -0.49 55.97, 1.17 46.96 C2.83 37.95, 7.5 27.81, 13.22 20.83 C18.95 13.85, 31.69 7.61, 35.53 5.09 C39.37 2.56, 35.77 5.07, 36.25 5.68" stroke="#1e1e1e" stroke-width="1" fill="none"></path></g><g transform="translate(10 82.91274166891822) rotate(0 110.70000457763672 25)"><text x="110.70000457763672" y="17.52" font-family="Virgil, Segoe UI Emoji" font-size="20px" fill="#1e1e1e" text-anchor="middle" style="white-space: pre;" direction="ltr" dominant-baseline="alphabetic">~/Documents/Tutorial</text><text x="110.70000457763672" y="42.519999999999996" font-family="Virgil, Segoe UI Emoji" font-size="20px" fill="#1e1e1e" text-anchor="middle" style="white-space: pre;" direction="ltr" dominant-baseline="alphabetic"></text></g><g stroke-linecap="round"><g transform="translate(93.9212231915526 74.5119679966474) rotate(0 27.12155024220783 -12.295978271792706)"><path d="M-0.24 -0.4 C0.95 -3.81, 3.66 -16.7, 6.88 -20.88 C10.1 -25.06, 11.01 -24.91, 19.08 -25.48 C27.16 -26.05, 49.49 -24.7, 55.34 -24.3 M-1.82 -1.65 C-0.75 -5.42, 2.67 -19.04, 6.04 -22.87 C9.41 -26.7, 10.67 -24.57, 18.42 -24.63 C26.16 -24.68, 46.79 -23.05, 52.5 -23.23" stroke="#1e1e1e" stroke-width="1" fill="none"></path></g></g><mask></mask><g stroke-linecap="round"><g transform="translate(147.16281283518492 49.69873600308506) rotate(0 -23.57864124864045 5.001753873271582)"><path d="M-0.4 0.21 C0.9 0.82, 7.19 -0.47, 7.41 3.43 C7.63 7.33, 3.28 19.76, 0.92 23.61 C-1.44 27.45, 0.85 26.09, -6.75 26.51 C-14.35 26.93, -36.71 27.21, -44.68 26.13 C-52.64 25.04, -53.1 25.9, -54.52 20 C-55.95 14.09, -54.02 -3.41, -53.24 -9.3 C-52.47 -15.19, -52.62 -14.05, -49.86 -15.34 C-47.11 -16.63, -39.73 -17.92, -36.72 -17.01 C-33.72 -16.1, -36.74 -11.07, -31.84 -9.89 C-26.94 -8.7, -12.65 -10.38, -7.32 -9.89 C-1.99 -9.4, -0.99 -8.75, 0.16 -6.96 C1.3 -5.16, -0.4 -0.1, -0.44 0.86 M1.59 -0.73 C2.79 0.12, 6.29 1.3, 6.59 5.06 C6.88 8.82, 5.54 18.08, 3.35 21.84 C1.16 25.59, 1.61 26.85, -6.54 27.59 C-14.69 28.34, -37.71 27.18, -45.53 26.3 C-53.36 25.42, -51.81 28.39, -53.51 22.32 C-55.2 16.25, -56.2 -3.89, -55.69 -10.13 C-55.18 -16.37, -53.92 -14.32, -50.44 -15.13 C-46.97 -15.94, -38.04 -15.77, -34.83 -14.99 C-31.62 -14.2, -35.73 -11.44, -31.16 -10.42 C-26.59 -9.41, -12.45 -9.44, -7.41 -8.92 C-2.38 -8.4, -2.12 -8.88, -0.96 -7.31 C0.21 -5.75, -0.46 -1.01, -0.44 0.49" stroke="#1e1e1e" stroke-width="1" fill="none"></path></g></g><mask></mask><g stroke-opacity="0" fill-opacity="0" stroke-linecap="round" transform="translate(216.77427495605662 146.736333844633) rotate(0 58.378661581835786 58.378661581835615)"><path d="M73.03 1.91 C81.72 3.32, 91.62 8.98, 98.35 15.2 C105.09 21.41, 110.49 30.75, 113.46 39.18 C116.44 47.62, 117.63 56.93, 116.2 65.78 C114.77 74.64, 110.1 84.69, 104.89 92.3 C99.68 99.91, 92.97 107.28, 84.95 111.43 C76.93 115.59, 65.75 117.71, 56.77 117.23 C47.79 116.75, 38.88 113.1, 31.04 108.57 C23.2 104.05, 14.72 97.46, 9.75 90.08 C4.78 82.7, 2.27 73.1, 1.22 64.29 C0.18 55.49, 0.32 45.68, 3.46 37.24 C6.6 28.79, 13.16 19.5, 20.08 13.6 C27.01 7.71, 35.12 3.56, 45 1.88 C54.87 0.19, 72.67 2.57, 79.32 3.51 C85.98 4.45, 85.46 6.65, 84.92 7.54 M37.91 4.29 C45.76 0.64, 57.14 -0.15, 66.26 0.62 C75.39 1.4, 85.46 3.71, 92.64 8.94 C99.83 14.16, 105.4 23.94, 109.38 31.99 C113.35 40.03, 116.13 48.29, 116.48 57.22 C116.83 66.14, 115.8 77.34, 111.5 85.52 C107.2 93.7, 98.52 100.95, 90.7 106.29 C82.88 111.63, 73.57 116.49, 64.57 117.55 C55.58 118.61, 44.93 116.16, 36.72 112.66 C28.52 109.16, 21.36 102.95, 15.34 96.53 C9.32 90.11, 2.77 82.84, 0.59 74.13 C-1.6 65.42, -0.3 53.3, 2.23 44.28 C4.76 35.27, 9.76 26.78, 15.78 20.06 C21.8 13.33, 34.84 6.64, 38.35 3.94 C41.87 1.25, 36.47 3.04, 36.86 3.89" stroke="#1e1e1e" stroke-width="1" fill="none"></path></g><g transform="translate(227.7998285404865 219.64907551355122) rotate(0 45.48999786376953 12.5)"><text x="45.48999786376953" y="17.52" font-family="Virgil, Segoe UI Emoji" font-size="20px" fill="#1e1e1e" text-anchor="middle" style="white-space: pre;" direction="ltr" dominant-baseline="alphabetic">Markdown</text></g><g stroke-linecap="round"><g transform="translate(246.5110450181719 211.2483018412804) rotate(0 27.12155024220783 -12.295978271792677)"><path d="M0.62 -0.65 C1.75 -4.33, 3.1 -17.65, 6.13 -21.54 C9.16 -25.44, 10.85 -23.61, 18.83 -24.03 C26.81 -24.45, 48 -24.03, 54 -24.06 M-0.51 1.63 C0.46 -1.93, 1.81 -15.61, 4.9 -20.23 C7.99 -24.85, 9.82 -25.64, 18.03 -26.08 C26.23 -26.52, 48.18 -23.25, 54.12 -22.88" stroke="#1e1e1e" stroke-width="1" fill="none"></path></g></g><mask></mask><g stroke-linecap="round"><g transform="translate(299.7526346618042 186.43506984771807) rotate(0 -23.57864124864045 5.001753873271582)"><path d="M-0.65 -0.54 C0.39 -0.12, 6.24 -0.63, 6.74 3.17 C7.25 6.97, 4.58 18.27, 2.37 22.27 C0.16 26.26, 1.52 26.57, -6.51 27.14 C-14.55 27.71, -37.78 26.83, -45.84 25.71 C-53.9 24.59, -53.54 26.24, -54.87 20.42 C-56.21 14.6, -54.44 -3.19, -53.85 -9.23 C-53.27 -15.27, -54.39 -14.4, -51.36 -15.82 C-48.33 -17.23, -38.94 -18.62, -35.66 -17.72 C-32.38 -16.82, -36.7 -11.71, -31.66 -10.41 C-26.62 -9.12, -10.49 -10.6, -5.43 -9.93 C-0.37 -9.27, -2.11 -8, -1.28 -6.42 C-0.46 -4.84, -0.59 -1.61, -0.47 -0.45 M1.21 1.79 C2 2.36, 5.46 1.06, 5.57 4.67 C5.69 8.28, 3.86 20.08, 1.9 23.46 C-0.06 26.83, 2.02 24.53, -6.18 24.9 C-14.39 25.27, -39.34 26.59, -47.31 25.66 C-55.29 24.73, -53.1 25.25, -54.04 19.31 C-54.98 13.36, -53.79 -4.17, -52.97 -10.03 C-52.14 -15.89, -51.75 -14.85, -49.06 -15.85 C-46.38 -16.86, -39.9 -16.84, -36.87 -16.07 C-33.84 -15.3, -35.66 -12.41, -30.88 -11.23 C-26.1 -10.05, -13.42 -9.77, -8.19 -8.99 C-2.96 -8.2, -0.78 -7.74, 0.51 -6.49 C1.79 -5.25, -0.14 -2.69, -0.48 -1.51" stroke="#1e1e1e" stroke-width="1" fill="none"></path></g></g><mask></mask><g stroke-linecap="round"><g transform="translate(118.5997427157763 125.84755551653643) rotate(0 -0.9908429988740863 480.55885445396405)"><path d="M1.11 -1.02 C0.52 159.1, -1.92 800.38, -2.49 960.82 M0.24 1.07 C-0.66 161.35, -3.12 802.46, -3.71 962.2" stroke="#1e1e1e" stroke-width="2" fill="none"></path></g></g><mask></mask><g stroke-linecap="round"><g transform="translate(126.52648670676899 197.18825143547542) rotate(0 32.69781896284758 0)"><path d="M-0.54 -0.42 C10.24 -0.22, 54.38 0.47, 65.33 0.56 M1.38 -1.69 C11.94 -1.79, 53.86 -1.81, 64.35 -1.26" stroke="#1e1e1e" stroke-width="2" fill="none"></path></g></g><mask></mask><g stroke-opacity="0" fill-opacity="0" stroke-linecap="round" transform="translate(169.21381101009865 885.9052110047511) rotate(0 58.378661581835786 58.378661581835615)"><path d="M33.44 5.29 C40.97 0.93, 52.29 -0.04, 61.25 0.36 C70.21 0.76, 79.46 3.19, 87.18 7.67 C94.89 12.15, 102.64 19.77, 107.55 27.23 C112.47 34.68, 115.86 43.37, 116.66 52.4 C117.45 61.44, 115.93 72.97, 112.32 81.42 C108.7 89.88, 102.02 97.55, 94.96 103.15 C87.9 108.75, 78.57 113.1, 69.96 115 C61.35 116.9, 51.82 116.95, 43.3 114.55 C34.78 112.14, 25.48 106.76, 18.83 100.59 C12.17 94.43, 6.51 86.13, 3.36 77.57 C0.22 69.01, -1.42 58.19, -0.03 49.25 C1.37 40.3, 5.44 31.62, 11.74 23.92 C18.04 16.22, 32.28 6.56, 37.79 3.06 C43.31 -0.44, 44.4 1.79, 44.82 2.94 M56.01 0.45 C64.39 -0.96, 75.98 0.41, 83.96 4.44 C91.94 8.48, 98.39 17.37, 103.89 24.65 C109.39 31.94, 115.28 39.6, 116.98 48.16 C118.67 56.73, 117.25 67.15, 114.09 76.06 C110.93 84.97, 104.53 95.02, 98.01 101.62 C91.49 108.21, 83.72 113.49, 74.97 115.63 C66.22 117.77, 54.36 116.29, 45.49 114.45 C36.63 112.61, 28.38 110.4, 21.79 104.58 C15.2 98.76, 9.36 88.13, 5.94 79.56 C2.51 70.98, 0.72 62.07, 1.22 53.15 C1.72 44.22, 4.34 33.85, 8.94 26.02 C13.53 18.19, 20.77 10.61, 28.79 6.15 C36.8 1.68, 52.18 0.1, 57.04 -0.76 C61.91 -1.63, 58.02 -0.14, 57.97 0.94" stroke="#1e1e1e" stroke-width="1" fill="none"></path></g><g transform="translate(198.1793632212375 958.8179526736693) rotate(0 27.549999237060547 12.5)"><text x="27.549999237060547" y="17.52" font-family="Virgil, Segoe UI Emoji" font-size="20px" fill="#1e1e1e" text-anchor="middle" style="white-space: pre;" direction="ltr" dominant-baseline="alphabetic">Bilder</text></g><g stroke-linecap="round"><g transform="translate(198.95058107221394 950.4171790013985) rotate(0 27.12155024220783 -12.295978271792677)"><path d="M-0.73 0.53 C0.46 -2.78, 2.71 -15.82, 6.05 -20.02 C9.38 -24.22, 11.24 -23.96, 19.29 -24.65 C27.33 -25.34, 48.4 -24.26, 54.3 -24.16 M1.09 -0.23 C2.77 -3.84, 5.49 -17.71, 8.43 -21.56 C11.37 -25.42, 11.04 -23.12, 18.73 -23.36 C26.42 -23.61, 48.79 -22.99, 54.58 -23.03" stroke="#1e1e1e" stroke-width="1" fill="none"></path></g></g><mask></mask><g stroke-linecap="round"><g transform="translate(252.19217071584626 925.6039470078362) rotate(0 -23.57864124864045 5.001753873271582)"><path d="M-0.62 1.1 C0.76 1.54, 7.14 -0.4, 7.56 3.18 C7.97 6.76, 4.16 18.65, 1.86 22.56 C-0.43 26.48, 1.92 26.01, -6.21 26.68 C-14.34 27.36, -39.09 27.78, -46.91 26.63 C-54.73 25.48, -51.86 26.04, -53.14 19.79 C-54.41 13.54, -54.87 -4.98, -54.56 -10.86 C-54.26 -16.73, -54.31 -14.63, -51.31 -15.46 C-48.31 -16.28, -39.8 -16.81, -36.56 -15.81 C-33.32 -14.81, -36.94 -10.29, -31.87 -9.45 C-26.8 -8.6, -11.34 -11.18, -6.13 -10.73 C-0.92 -10.28, -1.69 -8.39, -0.61 -6.76 C0.47 -5.13, 0.33 -2.1, 0.35 -0.94 M1.25 0.63 C2.57 1.23, 6.84 0.81, 6.82 4.69 C6.79 8.57, 3.22 20.05, 1.13 23.91 C-0.96 27.77, 2.01 27.34, -5.72 27.86 C-13.45 28.39, -37.05 28.04, -45.27 27.07 C-53.49 26.09, -53.59 27.99, -55.05 22.01 C-56.51 16.02, -55.05 -2.63, -54.04 -8.85 C-53.03 -15.07, -51.62 -13.98, -48.99 -15.31 C-46.35 -16.63, -41.21 -17.74, -38.24 -16.81 C-35.28 -15.89, -36.65 -10.86, -31.21 -9.75 C-25.77 -8.65, -10.45 -10.66, -5.6 -10.2 C-0.76 -9.74, -3.18 -8.95, -2.12 -7.02 C-1.06 -5.08, 0.65 0.21, 0.76 1.4" stroke="#1e1e1e" stroke-width="1" fill="none"></path></g></g><mask></mask><g stroke-linecap="round"><g transform="translate(116.61805671802904 938.3388145933417) rotate(0 32.69781896284758 0)"><path d="M-0.17 1.12 C10.78 0.8, 54.42 -0.6, 65.41 -0.91 M-1.72 0.66 C9.1 0.38, 53.31 0.22, 64.48 0.14" stroke="#1e1e1e" stroke-width="2" fill="none"></path></g></g><mask></mask><g stroke-opacity="0" fill-opacity="0" stroke-linecap="round" transform="translate(159.30538102135688 1040.4767188291187) rotate(0 58.378661581835786 58.378661581835615)"><path d="M44.82 1.87 C52.95 -0.82, 63.75 -0.85, 72.63 1.47 C81.51 3.8, 91.2 9.75, 98.1 15.83 C104.99 21.91, 110.82 29.4, 113.98 37.96 C117.15 46.51, 118.49 58.03, 117.07 67.16 C115.66 76.28, 111.1 85.61, 105.51 92.7 C99.91 99.79, 91.53 105.66, 83.51 109.69 C75.49 113.73, 66.14 116.83, 57.39 116.91 C48.64 116.98, 39.09 114.46, 31.01 110.15 C22.93 105.83, 14.17 98.54, 8.9 91.01 C3.64 83.48, 0.2 74, -0.59 64.96 C-1.37 55.92, 0.72 45.34, 4.2 36.77 C7.67 28.2, 12.86 19.51, 20.28 13.55 C27.69 7.6, 43.31 2.98, 48.67 1.04 C54.04 -0.89, 52.25 1.06, 52.46 1.93 M66.74 -1.01 C75.7 -0.63, 85.31 5.12, 92.55 10.51 C99.79 15.89, 106.14 23.38, 110.18 31.31 C114.21 39.25, 116.94 48.96, 116.77 58.13 C116.6 67.3, 113.48 78.32, 109.17 86.33 C104.86 94.33, 98.01 101.04, 90.9 106.18 C83.79 111.32, 75.28 116.21, 66.5 117.15 C57.72 118.08, 46.92 114.96, 38.2 111.8 C29.49 108.65, 20.26 104.58, 14.22 98.21 C8.17 91.84, 4.07 82.4, 1.91 73.57 C-0.24 64.75, -0.71 54.47, 1.3 45.27 C3.31 36.07, 7.9 25.24, 13.98 18.38 C20.07 11.51, 29.27 6.94, 37.81 4.06 C46.35 1.19, 60.72 1.43, 65.24 1.12 C69.75 0.82, 65.15 1.21, 64.89 2.26" stroke="#1e1e1e" stroke-width="1" fill="none"></path></g><g stroke-linecap="round"><g transform="translate(196.16932518646354 1061.2684085943886) rotate(0 19.160270366971417 23.471331199539776)"><path d="M0 0 C-0.36 10.49, -0.69 21.31, 0 46.94 M0 0 C-0.11 16.33, 0.13 31.87, 0 46.94 M0 46.94 C15.14 46, 28.92 47.13, 38.32 46.94 M0 46.94 C11.72 47.03, 23.8 47.16, 38.32 46.94 M38.32 46.94 C37.91 36.22, 38.64 25.97, 38.32 13.41 M38.32 46.94 C38.5 34.75, 38.02 23.66, 38.32 13.41 M38.32 13.41 C35.85 13.45, 33.29 13.33, 25.99 13.41 M38.32 13.41 C35.32 13.6, 32.59 13.49, 25.99 13.41 M25.99 13.41 C26.1 11.06, 25.84 8.03, 25.99 0.48 M25.99 13.41 C26.1 10.09, 26.19 6.76, 25.99 0.48 M25.99 0.48 C29.74 5.76, 35.15 9.19, 38.32 13.41 M25.99 0.48 C29.93 3.81, 33.35 7.53, 38.32 13.41 M38.32 13.41 C35.42 10.16, 31.55 7.76, 25.55 0 M38.32 13.41 C33.73 9.34, 29.39 4.22, 25.55 0 M25.55 0 C21.42 0.21, 15.48 -0.01, 0 0 M25.55 0 C20.33 0.2, 14.73 0.11, 0 0" stroke="#1e1e1e" stroke-width="1" fill="none"></path></g></g><mask></mask><g transform="translate(160.64404550236213 1112.539572608233) rotate(0 57.03999710083008 12.5)"><text x="57.03999710083008" y="17.52" font-family="Virgil, Segoe UI Emoji" font-size="20px" fill="#1e1e1e" text-anchor="middle" style="white-space: pre;" direction="ltr" dominant-baseline="alphabetic">README.md</text></g><g stroke-linecap="round"><g transform="translate(116.61805671802813 1084.9835784267163) rotate(0 32.69781896284758 0)"><path d="M-0.61 -0.93 C10.25 -0.75, 53.73 0.47, 64.57 0.52 M1.27 1.2 C12.57 1.06, 55.92 -1.19, 66.84 -1.32" stroke="#1e1e1e" stroke-width="2" fill="none"></path></g></g><mask></mask><g stroke-opacity="0" fill-opacity="0" stroke-linecap="round" transform="translate(365.40072478717957 226.00377375456526) rotate(0 58.378661581835786 58.378661581835615)"><path d="M57.03 0.16 C65.6 -0.8, 75.41 1.56, 83.6 5.74 C91.8 9.92, 100.73 17.98, 106.22 25.23 C111.7 32.49, 115.49 40.4, 116.51 49.27 C117.54 58.15, 115.62 69.82, 112.37 78.47 C109.11 87.12, 103.49 95.03, 96.97 101.18 C90.46 107.34, 81.82 113.19, 73.27 115.4 C64.73 117.6, 54.34 116.65, 45.71 114.42 C37.07 112.18, 28.49 107.59, 21.48 101.98 C14.47 96.37, 7.17 89.07, 3.66 80.75 C0.16 72.44, -0.42 61.33, 0.45 52.08 C1.32 42.83, 3.76 32.84, 8.87 25.24 C13.98 17.64, 21.63 10.61, 31.13 6.46 C40.63 2.31, 58.81 1.06, 65.88 0.36 C72.95 -0.35, 73.56 1.37, 73.54 2.22 M40.1 4.08 C48.12 0.94, 59.6 0.8, 68.56 2.25 C77.53 3.7, 86.99 7.69, 93.88 12.79 C100.77 17.89, 106.04 25, 109.91 32.85 C113.78 40.7, 117.24 50.75, 117.1 59.89 C116.96 69.04, 113.83 79.58, 109.08 87.72 C104.34 95.86, 96.5 103.98, 88.64 108.72 C80.78 113.46, 70.85 115.6, 61.93 116.14 C53.01 116.67, 43.16 115.27, 35.12 111.95 C27.08 108.64, 19.27 103.11, 13.68 96.23 C8.09 89.35, 3.23 79.77, 1.57 70.67 C-0.08 61.57, 1.15 50.64, 3.75 41.63 C6.34 32.62, 11.03 22.94, 17.15 16.61 C23.27 10.27, 36.82 5.53, 40.46 3.62 C44.1 1.71, 38.86 4.54, 39 5.14" stroke="#1e1e1e" stroke-width="1" fill="none"></path></g><g transform="translate(349.54627348879694 298.9165154234835) rotate(0 72.37000274658203 12.5)"><text x="72.37000274658203" y="17.52" font-family="Virgil, Segoe UI Emoji" font-size="20px" fill="#1e1e1e" text-anchor="middle" style="white-space: pre;" direction="ltr" dominant-baseline="alphabetic">01_Technologie</text></g><g stroke-linecap="round"><g transform="translate(395.13749484929485 290.51574175121266) rotate(0 27.12155024220783 -12.295978271792677)"><path d="M-1.01 -0.3 C0.14 -3.82, 3.61 -18.26, 6.84 -22.23 C10.07 -26.19, 10.28 -23.81, 18.37 -24.08 C26.45 -24.35, 49.56 -23.61, 55.34 -23.83 M0.67 -1.5 C1.68 -4.82, 3.21 -17.16, 5.99 -21.27 C8.76 -25.38, 9.57 -25.94, 17.32 -26.15 C25.08 -26.36, 46.29 -22.61, 52.51 -22.52" stroke="#1e1e1e" stroke-width="1" fill="none"></path></g></g><mask></mask><g stroke-linecap="round"><g transform="translate(448.3790844929272 265.7025097576503) rotate(0 -23.57864124864045 5.001753873271582)"><path d="M0.17 -1.11 C1.45 -0.43, 6.18 -0.25, 6.64 3.75 C7.09 7.75, 5.32 19.3, 2.91 22.9 C0.49 26.5, 0.2 24.94, -7.84 25.36 C-15.88 25.78, -37.65 26.24, -45.34 25.41 C-53.02 24.58, -52.58 26.29, -53.95 20.39 C-55.33 14.49, -53.95 -4.08, -53.59 -10.01 C-53.23 -15.95, -54.47 -14.03, -51.79 -15.22 C-49.11 -16.41, -41 -18.12, -37.52 -17.17 C-34.04 -16.23, -36 -10.6, -30.9 -9.55 C-25.81 -8.5, -11.87 -11.46, -6.96 -10.88 C-2.06 -10.3, -2.49 -7.96, -1.48 -6.07 C-0.47 -4.18, -1.13 -0.6, -0.9 0.46 M-1.19 0.93 C-0.04 1.27, 4.76 -1.41, 5.41 1.9 C6.07 5.2, 4.99 16.77, 2.72 20.76 C0.45 24.75, 0 25.11, -8.21 25.85 C-16.42 26.59, -39.13 26.31, -46.54 25.21 C-53.94 24.11, -51.63 25.33, -52.64 19.26 C-53.64 13.19, -53.05 -5.51, -52.56 -11.21 C-52.08 -16.91, -52.47 -14.27, -49.72 -14.94 C-46.97 -15.61, -38.77 -16.07, -36.05 -15.23 C-33.32 -14.39, -38.25 -10.71, -33.39 -9.9 C-28.53 -9.1, -12.47 -11.08, -6.87 -10.42 C-1.27 -9.77, -0.75 -7.67, 0.21 -5.96 C1.16 -4.24, -0.96 -1.16, -1.14 -0.12" stroke="#1e1e1e" stroke-width="1" fill="none"></path></g></g><mask></mask><g stroke-linecap="round"><g transform="translate(275.15293653789195 276.4556913454077) rotate(0 32.69781896284758 0)"><path d="M-0.53 0.51 C10.53 0.76, 55.7 0.67, 66.5 0.39 M1.4 -0.26 C12.37 -0.29, 55.27 -1.49, 66.13 -1.53" stroke="#1e1e1e" stroke-width="2" fill="none"></path></g></g><mask></mask><g stroke-opacity="0" fill-opacity="0" stroke-linecap="round" transform="translate(363.4190387894323 509.38487143257305) rotate(0 58.378661581835786 58.378661581835615)"><path d="M51.29 1.22 C59.71 -0.29, 71.46 1.72, 80.18 5.01 C88.89 8.31, 97.66 14.14, 103.6 21 C109.53 27.87, 114 37.43, 115.79 46.18 C117.59 54.93, 116.76 64.91, 114.37 73.52 C111.97 82.13, 107.48 91.12, 101.4 97.84 C95.32 104.56, 86.2 110.83, 77.86 113.86 C69.52 116.89, 60.1 117.34, 51.34 116.01 C42.58 114.67, 32.84 111.06, 25.28 105.85 C17.71 100.64, 10.24 92.74, 5.94 84.76 C1.64 76.78, -0.77 67.09, -0.52 57.97 C-0.26 48.86, 3.22 38.05, 7.46 30.04 C11.69 22.04, 16.34 14.97, 24.89 9.95 C33.43 4.93, 52.44 1.28, 58.72 -0.06 C65 -1.4, 62.58 1.02, 62.58 1.92 M31.97 5.67 C39.31 1.38, 49.7 0.44, 59.11 0.84 C68.51 1.24, 80.07 3.62, 88.39 8.06 C96.71 12.5, 104.24 19.65, 109.01 27.46 C113.78 35.28, 116.65 46.05, 117.01 54.93 C117.37 63.81, 114.95 72.62, 111.17 80.73 C107.4 88.83, 101.04 97.91, 94.35 103.57 C87.66 109.23, 79.86 112.84, 71.04 114.72 C62.21 116.59, 50.11 117.23, 41.4 114.8 C32.68 112.37, 25.32 106.22, 18.74 100.13 C12.15 94.05, 4.72 86.64, 1.9 78.28 C-0.92 69.93, 0.21 59.12, 1.84 50.02 C3.47 40.93, 6.25 31.14, 11.68 23.73 C17.11 16.33, 30.77 8.62, 34.41 5.61 C38.04 2.6, 33.33 4.92, 33.48 5.68" stroke="#1e1e1e" stroke-width="1" fill="none"></path></g><g transform="translate(357.7445916109227 582.2976131014913) rotate(0 62.189998626708984 12.5)"><text x="62.189998626708984" y="17.52" font-family="Virgil, Segoe UI Emoji" font-size="20px" fill="#1e1e1e" text-anchor="middle" style="white-space: pre;" direction="ltr" dominant-baseline="alphabetic">02_Didaktik</text></g><g stroke-linecap="round"><g transform="translate(393.1558088515476 573.8968394292204) rotate(0 27.12155024220783 -12.295978271792677)"><path d="M-0.26 0.68 C0.68 -2.99, 2.47 -17.99, 5.84 -22.13 C9.21 -26.27, 11.7 -24.02, 19.95 -24.17 C28.21 -24.32, 49.5 -23.12, 55.36 -23.02 M1.81 -0.01 C3.1 -3.55, 5.12 -16.74, 8.11 -21.12 C11.1 -25.5, 12.34 -25.65, 19.74 -26.29 C27.15 -26.93, 46.81 -25.53, 52.54 -24.95" stroke="#1e1e1e" stroke-width="1" fill="none"></path></g></g><mask></mask><g stroke-linecap="round"><g transform="translate(446.3973984951799 549.0836074356581) rotate(0 -23.57864124864045 5.001753873271582)"><path d="M0.68 -0.83 C1.72 -0.07, 5.9 0.22, 6.16 4.3 C6.41 8.37, 4.17 19.77, 2.23 23.63 C0.29 27.48, 2.43 26.74, -5.47 27.42 C-13.38 28.11, -37.05 28.8, -45.2 27.73 C-53.35 26.67, -52.82 27.34, -54.37 21.04 C-55.92 14.73, -55.01 -3.98, -54.49 -10.09 C-53.98 -16.21, -54.43 -14.54, -51.28 -15.66 C-48.13 -16.77, -39 -17.76, -35.59 -16.8 C-32.18 -15.83, -35.59 -11.01, -30.82 -9.87 C-26.05 -8.72, -11.95 -10.46, -6.99 -9.92 C-2.03 -9.37, -2.29 -8.17, -1.05 -6.61 C0.2 -5.06, 0.5 -1.72, 0.47 -0.6 M-0.42 1.35 C0.99 1.82, 7.99 -0.69, 8.34 2.73 C8.69 6.15, 4.45 18.1, 1.68 21.87 C-1.08 25.64, -0.26 24.79, -8.26 25.33 C-16.26 25.87, -38.82 25.94, -46.32 25.09 C-53.83 24.25, -52 26.32, -53.27 20.24 C-54.54 14.17, -54.66 -5.37, -53.94 -11.34 C-53.22 -17.32, -51.8 -14.45, -48.94 -15.61 C-46.08 -16.77, -39.38 -19.19, -36.77 -18.32 C-34.15 -17.45, -38.24 -11.95, -33.26 -10.39 C-28.29 -8.83, -12.6 -9.56, -6.91 -8.96 C-1.22 -8.36, -0.44 -7.99, 0.87 -6.79 C2.18 -5.59, 0.9 -2.86, 0.95 -1.74" stroke="#1e1e1e" stroke-width="1" fill="none"></path></g></g><mask></mask><g stroke-linecap="round"><g transform="translate(273.1712505401447 559.8367890234155) rotate(0 32.69781896284758 0)"><path d="M-0.83 -1.01 C10.29 -1.05, 55.23 0.05, 66.45 0.42 M0.93 1.07 C12.01 0.6, 55.16 -1.21, 66.06 -1.48" stroke="#1e1e1e" stroke-width="2" fill="none"></path></g></g><mask></mask><g stroke-linecap="round"><g transform="translate(271.1895645423965 248.71208737693132) rotate(0 -1.9816859977490822 273.47266768926636)"><path d="M-1.19 -0.42 C-1.79 90.91, -4.21 456.49, -4.67 547.75 M0.38 -1.69 C0.27 89.33, -1.48 454.34, -2.33 546.04" stroke="#1e1e1e" stroke-width="2" fill="none"></path></g></g><mask></mask><g stroke-opacity="0" fill-opacity="0" stroke-linecap="round" transform="translate(341.6204928142015 747.18719116237) rotate(0 58.378661581835786 58.378661581835615)"><path d="M81.93 5.24 C89.9 8.02, 98.64 14.57, 104.18 21.87 C109.71 29.17, 113.39 39.92, 115.14 49.05 C116.89 58.19, 117.34 68.08, 114.66 76.69 C111.99 85.29, 105.6 94.3, 99.09 100.68 C92.58 107.05, 84.13 112.51, 75.61 114.95 C67.08 117.39, 56.95 117.01, 47.92 115.3 C38.9 113.58, 28.72 110.24, 21.44 104.65 C14.16 99.07, 7.79 90.02, 4.24 81.78 C0.69 73.53, -0.53 64.05, 0.16 55.17 C0.84 46.3, 3.8 36.42, 8.35 28.52 C12.91 20.61, 19.78 12.46, 27.48 7.76 C35.18 3.06, 44.98 0.65, 54.55 0.31 C64.12 -0.02, 79.66 4.44, 84.93 5.75 C90.19 7.06, 86.44 7.2, 86.13 8.16 M61.89 1.1 C70.82 0.27, 81.21 2.53, 88.68 6.76 C96.16 10.99, 102.07 18.76, 106.74 26.47 C111.41 34.18, 115.67 43.66, 116.7 53 C117.74 62.34, 116.75 73.91, 112.97 82.51 C109.18 91.12, 101.33 98.97, 93.98 104.64 C86.63 110.31, 77.46 114.69, 68.86 116.55 C60.26 118.41, 50.95 118.29, 42.37 115.81 C33.79 113.32, 23.89 108.35, 17.4 101.63 C10.9 94.92, 6.14 84.1, 3.38 75.52 C0.62 66.94, -0.33 58.61, 0.85 50.16 C2.04 41.71, 5 32.25, 10.51 24.83 C16.02 17.41, 25.68 9.98, 33.93 5.64 C42.18 1.29, 55.49 -0.4, 60 -1.23 C64.51 -2.05, 60.82 -0.7, 61 0.69" stroke="#1e1e1e" stroke-width="1" fill="none"></path></g><g stroke-linecap="round"><g transform="translate(378.48443697930816 767.9788809276399) rotate(0 19.160270366971417 23.471331199539776)"><path d="M0 0 C0.66 18.21, -0.9 33.99, 0 46.94 M0 0 C-0.43 14.47, 0.24 28.35, 0 46.94 M0 46.94 C10.83 47.26, 19.71 46.21, 38.32 46.94 M0 46.94 C13.41 47.3, 26.69 47.29, 38.32 46.94 M38.32 46.94 C38.63 39.88, 37.7 32.34, 38.32 13.41 M38.32 46.94 C38.25 38.74, 38.48 31.46, 38.32 13.41 M38.32 13.41 C33.36 13.09, 29.24 13.1, 25.99 13.41 M38.32 13.41 C34.12 13.11, 29.69 13.4, 25.99 13.41 M25.99 13.41 C26.17 7.78, 26.06 3.81, 25.99 0.48 M25.99 13.41 C25.92 10.4, 25.65 7.76, 25.99 0.48 M25.99 0.48 C30.08 4.45, 32.39 7.4, 38.32 13.41 M25.99 0.48 C28.87 3.8, 31.59 6.41, 38.32 13.41 M38.32 13.41 C34 9.82, 31.66 5.32, 25.55 0 M38.32 13.41 C33.79 9.15, 29.96 5, 25.55 0 M25.55 0 C19.48 -0.19, 11.16 0.33, 0 0 M25.55 0 C18.82 -0.43, 11.2 -0.02, 0 0" stroke="#1e1e1e" stroke-width="1" fill="none"></path></g></g><mask></mask><g transform="translate(340.3391545486247 819.2500449414842) rotate(0 59.65999984741211 12.5)"><text x="59.65999984741211" y="17.52" font-family="Virgil, Segoe UI Emoji" font-size="20px" fill="#1e1e1e" text-anchor="middle" style="white-space: pre;" direction="ltr" dominant-baseline="alphabetic">Einleitung.md</text></g><g stroke-linecap="round"><g transform="translate(269.20787854464925 791.6940507599674) rotate(0 32.69781896284758 0)"><path d="M1.06 -0.85 C11.92 -1.02, 53.94 -0.01, 64.59 -0.02 M0.15 1.32 C11.44 1.87, 56.24 1.73, 66.88 1.51" stroke="#1e1e1e" stroke-width="2" fill="none"></path></g></g><mask></mask><g stroke-opacity="0" fill-opacity="0" stroke-linecap="round" transform="translate(484.30188465207993 331.0331316352255) rotate(0 58.378661581835786 58.378661581835615)"><path d="M63.41 -0.25 C72.03 -0.43, 81.91 3.53, 89.38 8.51 C96.85 13.5, 103.78 21.71, 108.22 29.68 C112.66 37.65, 115.49 47.42, 116.03 56.32 C116.57 65.22, 115.03 75.11, 111.46 83.08 C107.89 91.04, 101.99 98.77, 94.59 104.11 C87.2 109.45, 76.24 113.63, 67.1 115.11 C57.95 116.59, 48 115.67, 39.71 113 C31.42 110.33, 23.62 105.34, 17.37 99.1 C11.11 92.85, 4.96 84.2, 2.15 75.53 C-0.66 66.85, -1.28 55.92, 0.51 47.05 C2.31 38.18, 7.3 29.33, 12.93 22.33 C18.56 15.34, 24.74 8.42, 34.31 5.06 C43.88 1.7, 63.39 2.37, 70.35 2.16 C77.31 1.95, 76.22 2.99, 76.08 3.8 M55.72 -0.11 C64.03 -1.42, 75.07 1.35, 83.45 5.55 C91.82 9.75, 100.41 17.93, 105.99 25.1 C111.57 32.28, 115.7 39.63, 116.93 48.62 C118.15 57.61, 116.62 70.27, 113.32 79.05 C110.01 87.82, 103.85 95.41, 97.1 101.25 C90.34 107.1, 81.55 111.92, 72.79 114.11 C64.03 116.31, 53.06 116.06, 44.55 114.41 C36.04 112.76, 28.6 110.01, 21.72 104.19 C14.83 98.38, 6.66 87.81, 3.21 79.5 C-0.23 71.19, -0.13 63.06, 1.06 54.34 C2.25 45.63, 5.38 35.05, 10.35 27.2 C15.33 19.34, 23.2 11.49, 30.89 7.19 C38.58 2.89, 52.37 2.47, 56.51 1.39 C60.64 0.3, 55.83 -0.23, 55.7 0.68" stroke="#1e1e1e" stroke-width="1" fill="none"></path></g><g stroke-linecap="round"><g transform="translate(521.1658288171866 351.8248214004954) rotate(0 19.160270366971417 23.471331199539776)"><path d="M0 0 C0.13 15.48, -0.55 31.37, 0 46.94 M0 0 C-0.25 12.55, -0.31 24.63, 0 46.94 M0 46.94 C11.5 45.8, 23.65 46.28, 38.32 46.94 M0 46.94 C8.1 47.23, 16.13 46.95, 38.32 46.94 M38.32 46.94 C38.47 37.25, 39.2 26.24, 38.32 13.41 M38.32 46.94 C38.19 38.56, 38.52 29.23, 38.32 13.41 M38.32 13.41 C34.93 13.89, 31.47 12.93, 25.99 13.41 M38.32 13.41 C34.83 13.14, 31.13 13.07, 25.99 13.41 M25.99 13.41 C25.45 9.95, 26.3 8.01, 25.99 0.48 M25.99 13.41 C25.9 8.69, 26.25 3.84, 25.99 0.48 M25.99 0.48 C28.46 3.45, 33.15 6.77, 38.32 13.41 M25.99 0.48 C29.94 4.49, 33.2 7.93, 38.32 13.41 M38.32 13.41 C35.72 9.35, 31.64 6.63, 25.55 0 M38.32 13.41 C34.34 9.14, 31.06 5.3, 25.55 0 M25.55 0 C17.39 -0.34, 10.71 0.11, 0 0 M25.55 0 C19.25 0.05, 12.59 -0.27, 0 0" stroke="#1e1e1e" stroke-width="1" fill="none"></path></g></g><mask></mask><g transform="translate(512.1905464627971 403.09598541433974) rotate(0 30.489999771118164 12.5)"><text x="30.489999771118164" y="17.52" font-family="Virgil, Segoe UI Emoji" font-size="20px" fill="#1e1e1e" text-anchor="middle" style="white-space: pre;" direction="ltr" dominant-baseline="alphabetic">Git.md</text></g><g stroke-linecap="round"><g transform="translate(423.7793863690158 377.5216772305713) rotate(0 32.69781896284758 0)"><path d="M0.16 -0.64 C11.1 -0.75, 55.3 -0.53, 66.19 -0.49 M-1.22 1.64 C9.58 1.67, 54.66 0.95, 65.66 0.79" stroke="#1e1e1e" stroke-width="2" fill="none"></path></g></g><mask></mask><g stroke-linecap="round"><g transform="translate(415.8526423780213 339.8696432733534) rotate(0 -4.547473508864641e-13 68.36816692231668)"><path d="M-0.64 0.8 C-0.75 23.58, -0.53 114.29, -0.49 136.83 M1.23 0.17 C0.9 23.15, -1.26 115.61, -1.7 138.42" stroke="#1e1e1e" stroke-width="2" fill="none"></path></g></g><mask></mask><g stroke-linecap="round"><g transform="translate(419.81601437351856 474.62429112023824) rotate(0 32.69781896284758 0)"><path d="M0.8 -0.49 C11.69 -0.46, 54.84 -0.65, 65.49 -0.42 M-0.24 -1.8 C10.48 -1.54, 53.95 0.76, 64.6 0.9" stroke="#1e1e1e" stroke-width="2" fill="none"></path></g></g><mask></mask><g stroke-opacity="0" fill-opacity="0" stroke-linecap="round" transform="translate(480.3385126565836 428.13574552489257) rotate(0 58.378661581835786 58.378661581835615)"><path d="M47.63 1.5 C56.07 -0.96, 67.5 0.22, 76.37 2.75 C85.24 5.28, 94.71 10.37, 100.86 16.68 C107.01 22.99, 110.88 31.97, 113.27 40.6 C115.66 49.24, 116.61 59.46, 115.22 68.49 C113.83 77.52, 110.5 87.46, 104.91 94.77 C99.32 102.09, 90.2 108.74, 81.68 112.39 C73.16 116.03, 62.79 117.26, 53.8 116.65 C44.82 116.04, 35.52 113.42, 27.77 108.72 C20.03 104.02, 11.88 96.16, 7.31 88.45 C2.74 80.74, 0.83 71.58, 0.38 62.44 C-0.07 53.3, 0.79 41.96, 4.62 33.6 C8.45 25.24, 15.23 17.76, 23.34 12.3 C31.44 6.83, 47.31 2.79, 53.25 0.82 C59.18 -1.15, 58.86 -0.34, 58.94 0.46 M51.22 -0.59 C59.5 -2.57, 69.83 1.64, 78 4.94 C86.18 8.24, 94.32 12.89, 100.27 19.23 C106.22 25.56, 111.45 34.42, 113.72 42.95 C115.98 51.49, 115.56 61.34, 113.86 70.42 C112.16 79.5, 109.37 90.6, 103.53 97.45 C97.68 104.31, 87.2 108.15, 78.79 111.55 C70.38 114.95, 61.73 118.51, 53.08 117.85 C44.44 117.19, 34.39 112.89, 26.91 107.6 C19.42 102.3, 12.71 93.89, 8.18 86.07 C3.65 78.25, 0.24 69.77, -0.26 60.69 C-0.77 51.6, 1.24 39.71, 5.15 31.58 C9.06 23.44, 15.89 17.15, 23.22 11.86 C30.55 6.57, 44.4 1.68, 49.14 -0.17 C53.88 -2.01, 51.32 -0.12, 51.67 0.78" stroke="#1e1e1e" stroke-width="1" fill="none"></path></g><g stroke-linecap="round"><g transform="translate(517.2024568216902 448.92743529016246) rotate(0 19.160270366971417 23.471331199539776)"><path d="M0 0 C-0.44 16.65, 0.68 33.73, 0 46.94 M0 0 C0.49 16.65, -0.44 33.63, 0 46.94 M0 46.94 C9.63 46.53, 19.76 46.18, 38.32 46.94 M0 46.94 C11.15 46.95, 23.32 47.32, 38.32 46.94 M38.32 46.94 C38.54 39.21, 38.99 32.19, 38.32 13.41 M38.32 46.94 C38.2 39.41, 38.73 31.82, 38.32 13.41 M38.32 13.41 C35.07 13.58, 32.33 13.25, 25.99 13.41 M38.32 13.41 C36.01 13.21, 33.04 13.61, 25.99 13.41 M25.99 13.41 C26.4 8.2, 25.83 3.81, 25.99 0.48 M25.99 13.41 C26.22 10.21, 25.86 7.8, 25.99 0.48 M25.99 0.48 C29.14 4.13, 32.1 6.27, 38.32 13.41 M25.99 0.48 C28.53 3.59, 31.04 6.02, 38.32 13.41 M38.32 13.41 C34.03 8.9, 29.79 5.64, 25.55 0 M38.32 13.41 C35.73 9.81, 32.2 6.94, 25.55 0 M25.55 0 C18.36 0.06, 10.15 -0.63, 0 0 M25.55 0 C19.8 -0.25, 13.32 0.29, 0 0" stroke="#1e1e1e" stroke-width="1" fill="none"></path></g></g><mask></mask><g transform="translate(492.52717561170994 500.1985993040068) rotate(0 46.189998626708984 12.5)"><text x="46.189998626708984" y="17.52" font-family="Virgil, Segoe UI Emoji" font-size="20px" fill="#1e1e1e" text-anchor="middle" style="white-space: pre;" direction="ltr" dominant-baseline="alphabetic">Github.md</text></g><g stroke-linecap="round"><g transform="translate(421.7977003712658 617.3056829581161) rotate(0 -0.9908429988745411 32.69781896284718)"><path d="M-1.18 0.57 C-1.35 11.21, -1.77 54.06, -1.72 64.81 M0.39 -0.17 C0.15 10.53, -2.29 54.97, -2.54 66.03" stroke="#1e1e1e" stroke-width="2" fill="none"></path></g></g><mask></mask><g stroke-linecap="round"><g transform="translate(419.81601437351856 682.7013208838104) rotate(0 32.69781896284758 0)"><path d="M0.33 0.8 C11.41 0.69, 55.5 -0.28, 66.37 -0.49 M-0.96 0.18 C10.06 0.2, 54.96 0.71, 65.93 0.79" stroke="#1e1e1e" stroke-width="2" fill="none"></path></g></g><mask></mask><g stroke-opacity="0" fill-opacity="0" stroke-linecap="round" transform="translate(480.3385126565827 636.2127752884646) rotate(0 58.378661581835786 58.378661581835615)"><path d="M53.5 0.64 C62.21 -1.17, 73.06 0.25, 81.39 3.66 C89.71 7.06, 97.83 14.09, 103.44 21.07 C109.05 28.06, 113.15 36.85, 115.04 45.56 C116.93 54.28, 117.01 64.62, 114.81 73.38 C112.61 82.14, 107.94 91.58, 101.84 98.1 C95.75 104.62, 87.07 109.47, 78.26 112.53 C69.45 115.58, 58.17 117.55, 49 116.41 C39.83 115.27, 30.49 110.92, 23.21 105.7 C15.94 100.48, 9.15 93.05, 5.33 85.09 C1.51 77.14, -0.02 67.2, 0.27 57.96 C0.56 48.71, 2.6 37.55, 7.08 29.63 C11.56 21.7, 18.42 15.29, 27.14 10.4 C35.86 5.52, 53.02 1.87, 59.39 0.32 C65.76 -1.23, 65.59 0.11, 65.37 1.1 M36.22 5.01 C44.18 1.34, 57.01 -0.24, 66.13 0.75 C75.25 1.74, 83.46 5.72, 90.95 10.94 C98.44 16.17, 106.54 24.47, 111.07 32.11 C115.61 39.76, 118.05 48.06, 118.13 56.8 C118.21 65.54, 116.14 76.32, 111.57 84.54 C107 92.75, 98.13 100.55, 90.7 106.07 C83.27 111.6, 75.98 116.34, 67 117.68 C58.02 119.01, 45.71 117.22, 36.81 114.08 C27.91 110.93, 19.21 105.67, 13.61 98.82 C8.02 91.96, 5.46 82.08, 3.24 72.95 C1.02 63.81, -1.68 52.9, 0.31 44.03 C2.31 35.15, 8.81 26.36, 15.21 19.7 C21.61 13.03, 35.07 6.53, 38.72 4.03 C42.36 1.53, 37.1 3.84, 37.06 4.69" stroke="#1e1e1e" stroke-width="1" fill="none"></path></g><g stroke-linecap="round"><g transform="translate(517.2024568216893 657.0044650537345) rotate(0 19.160270366971417 23.471331199539776)"><path d="M0 0 C-0.21 10.17, 0.99 20.56, 0 46.94 M0 0 C0.02 18.58, -0.26 37.55, 0 46.94 M0 46.94 C10.72 46.03, 19.49 47.22, 38.32 46.94 M0 46.94 C8.66 47.21, 16.97 46.94, 38.32 46.94 M38.32 46.94 C38.61 38.48, 38.49 28.93, 38.32 13.41 M38.32 46.94 C38.09 39.49, 37.86 33.07, 38.32 13.41 M38.32 13.41 C34.1 13.87, 29.7 13.96, 25.99 13.41 M38.32 13.41 C35.43 13.35, 33.25 13.67, 25.99 13.41 M25.99 13.41 C26.59 11.17, 26.07 7.09, 25.99 0.48 M25.99 13.41 C26.24 10.15, 25.8 6.77, 25.99 0.48 M25.99 0.48 C29.59 3.59, 31.5 6.46, 38.32 13.41 M25.99 0.48 C30.22 4.66, 34.35 9.84, 38.32 13.41 M38.32 13.41 C34.54 10.48, 31.02 5.07, 25.55 0 M38.32 13.41 C34.12 8.73, 29.56 4.43, 25.55 0 M25.55 0 C19.48 -1.06, 12.96 -0.04, 0 0 M25.55 0 C15.36 0.26, 5.18 0.21, 0 0" stroke="#1e1e1e" stroke-width="1" fill="none"></path></g></g><mask></mask><g transform="translate(409.43717545912114 708.2756290675788) rotate(0 129.27999877929688 12.5)"><text x="129.27999877929688" y="17.52" font-family="Virgil, Segoe UI Emoji" font-size="20px" fill="#1e1e1e" text-anchor="middle" style="white-space: pre;" direction="ltr" dominant-baseline="alphabetic">Interaktive_Lehrbücher.md</text></g></svg>