<svg version="1.1" xmlns="http://www.w3.org/2000/svg" viewBox="0 0 2947.355788284549 1358.2255516812704" width="8842.067364853647" height="4074.6766550438115">
  <!-- svg-source:excalidraw -->
  
  <defs>
    <style class="style-fonts">
      @font-face {
        font-family: "Virgil";
        src: url("https://excalidraw.com/Virgil.woff2");
      }
      @font-face {
        font-family: "Cascadia";
        src: url("https://excalidraw.com/Cascadia.woff2");
      }
      @font-face {
        font-family: "Assistant";
        src: url("https://excalidraw.com/Assistant-Regular.woff2");
      }
    </style>
    
  </defs>
  <rect x="0" y="0" width="2947.355788284549" height="1358.2255516812704" fill="#ffffff"></rect><g stroke-linecap="round" transform="translate(201 1118.8349609649733) rotate(0 10.5 13.5)"><path d="M9.35 -0.17 C11.47 -0.66, 14.15 0.47, 15.96 2.17 C17.77 3.86, 19.54 7.21, 20.2 10.01 C20.87 12.8, 20.75 16.31, 19.95 18.95 C19.16 21.58, 17.42 24.48, 15.45 25.81 C13.48 27.14, 10.36 27.66, 8.13 26.94 C5.9 26.22, 3.37 23.83, 2.05 21.49 C0.73 19.15, 0.1 15.71, 0.22 12.9 C0.34 10.09, 1.16 6.71, 2.79 4.64 C4.41 2.56, 8.81 1.12, 9.99 0.45 C11.17 -0.21, 9.9 0.48, 9.86 0.65 M8.57 0.78 C10.68 0.01, 14 -0.06, 15.99 1.34 C17.97 2.75, 19.84 6.24, 20.49 9.22 C21.15 12.19, 20.72 16.54, 19.91 19.21 C19.1 21.87, 17.66 23.97, 15.62 25.21 C13.59 26.46, 10 27.26, 7.7 26.69 C5.4 26.12, 3.12 23.97, 1.81 21.79 C0.5 19.62, -0.2 16.62, -0.17 13.63 C-0.14 10.64, 0.44 6.18, 1.97 3.84 C3.51 1.5, 7.88 0.19, 9.02 -0.4 C10.16 -1, 8.89 -0.02, 8.82 0.27" stroke="#1e1e1e" stroke-width="2" fill="none"></path></g><g stroke-linecap="round" transform="translate(196 929.8349609649733) rotate(0 17 15.5)"><path d="M13.27 -0.01 C16.6 -0.92, 21.65 -0.12, 24.96 1.47 C28.26 3.07, 31.74 6.38, 33.12 9.57 C34.49 12.76, 34.36 17.41, 33.21 20.61 C32.05 23.81, 29.24 27.06, 26.18 28.76 C23.13 30.47, 18.54 31.29, 14.89 30.83 C11.24 30.38, 6.73 28.52, 4.29 26.03 C1.85 23.54, 0.27 19.21, 0.24 15.89 C0.2 12.57, 1.71 8.79, 4.07 6.12 C6.44 3.44, 12.61 0.8, 14.42 -0.16 C16.22 -1.11, 14.9 0.11, 14.9 0.38 M16.81 -0.07 C20.03 -0.35, 23.77 1.18, 26.55 3.15 C29.32 5.12, 32.4 8.46, 33.44 11.74 C34.47 15.01, 34.43 19.88, 32.75 22.78 C31.08 25.69, 26.85 28, 23.38 29.19 C19.92 30.38, 15.42 30.82, 11.97 29.91 C8.53 29, 4.59 26.57, 2.72 23.73 C0.85 20.88, 0.41 16.11, 0.76 12.83 C1.11 9.56, 2.35 6.28, 4.83 4.1 C7.31 1.92, 13.76 0.48, 15.63 -0.25 C17.5 -0.98, 15.96 -0.62, 16.04 -0.29" stroke="#1e1e1e" stroke-width="2" fill="none"></path></g><g stroke-linecap="round" transform="translate(190 736.8349609649733) rotate(0 18 14.5)"><path d="M17.51 -0.08 C21.11 -0.19, 26.09 1.65, 29.09 3.65 C32.09 5.65, 34.72 8.89, 35.53 11.92 C36.33 14.96, 35.79 19.13, 33.93 21.87 C32.07 24.62, 28.04 27.36, 24.38 28.4 C20.72 29.44, 15.59 29.18, 11.98 28.13 C8.36 27.07, 4.66 24.68, 2.69 22.08 C0.72 19.48, -0.49 15.56, 0.15 12.53 C0.79 9.5, 3.57 5.92, 6.52 3.89 C9.46 1.87, 15.82 0.96, 17.82 0.38 C19.81 -0.2, 18.46 0.26, 18.47 0.42 M21.41 -0.44 C25.13 -0.18, 29.66 2.64, 32.03 5.28 C34.41 7.93, 35.73 12.35, 35.68 15.44 C35.63 18.53, 34.34 21.61, 31.75 23.84 C29.16 26.07, 24.06 28.31, 20.15 28.82 C16.23 29.33, 11.49 28.4, 8.26 26.9 C5.03 25.39, 2.07 22.83, 0.78 19.79 C-0.52 16.75, -0.93 11.73, 0.49 8.64 C1.91 5.55, 5.84 2.68, 9.3 1.26 C12.76 -0.16, 19.31 0.29, 21.23 0.15 C23.15 0.01, 20.8 0.22, 20.81 0.42" stroke="#1e1e1e" stroke-width="2" fill="none"></path></g><g stroke-linecap="round" transform="translate(193 527.8349609649733) rotate(0 12 15.5)"><path d="M12.11 -0.36 C14.65 -0.49, 18.22 1.33, 20.19 3.61 C22.15 5.89, 23.52 9.99, 23.91 13.31 C24.3 16.63, 23.8 20.74, 22.52 23.54 C21.25 26.35, 18.72 29.03, 16.25 30.14 C13.77 31.24, 10.1 31.38, 7.68 30.18 C5.27 28.98, 2.92 25.84, 1.75 22.94 C0.57 20.04, 0.13 16.09, 0.65 12.78 C1.17 9.46, 2.81 5.22, 4.85 3.07 C6.89 0.93, 11.55 0.42, 12.9 -0.08 C14.26 -0.58, 13.06 -0.27, 12.97 0.07 M9.33 0.21 C11.59 -0.54, 15.55 0.12, 17.98 1.85 C20.42 3.58, 23.11 7.49, 23.95 10.58 C24.79 13.67, 24.03 17.37, 23.01 20.37 C22 23.38, 20.07 26.91, 17.87 28.61 C15.66 30.3, 12.2 31.22, 9.78 30.55 C7.36 29.88, 5.08 27.14, 3.34 24.59 C1.61 22.04, -0.45 18.52, -0.61 15.28 C-0.77 12.04, 0.61 7.74, 2.37 5.13 C4.12 2.51, 8.66 0.33, 9.92 -0.42 C11.19 -1.16, 9.96 0.23, 9.95 0.66" stroke="#1e1e1e" stroke-width="2" fill="none"></path></g><g stroke-linecap="round"><g transform="translate(208 967.8349609649733) rotate(0 3.630710289813578 75.17639959122988)"><path d="M-0.04 0.07 C1.12 25.27, 5.25 125.17, 6.39 150.18 M-1.52 -0.93 C0.08 24.48, 7.54 125.97, 8.78 151.29" stroke="#1e1e1e" stroke-width="2" fill="none"></path></g><g transform="translate(208 967.8349609649733) rotate(0 3.630710289813578 75.17639959122988)"><path d="M-1.23 128.38 C1.26 133.2, 2.32 139.74, 8.78 151.29 M-1.23 128.38 C1.31 134.14, 3.92 138.98, 8.78 151.29" stroke="#1e1e1e" stroke-width="2" fill="none"></path></g><g transform="translate(208 967.8349609649733) rotate(0 3.630710289813578 75.17639959122988)"><path d="M15.84 127.3 C13.97 132.39, 10.68 139.21, 8.78 151.29 M15.84 127.3 C14.51 133.25, 13.25 138.33, 8.78 151.29" stroke="#1e1e1e" stroke-width="2" fill="none"></path></g></g><mask></mask><g stroke-linecap="round"><g transform="translate(209 769.8349609649733) rotate(0 1.0568968418054396 81.32052736845797)"><path d="M0.07 -0.61 C0.44 26.36, 1 134.58, 1.18 161.81 M-1.35 1.68 C-0.52 28.85, 2.64 136.72, 3.46 163.25" stroke="#1e1e1e" stroke-width="2" fill="none"></path></g><g transform="translate(209 769.8349609649733) rotate(0 1.0568968418054396 81.32052736845797)"><path d="M-5.79 140.03 C-4.8 143.71, -2.08 148.66, 3.46 163.25 M-5.79 140.03 C-1.95 148.98, 1.09 157.69, 3.46 163.25" stroke="#1e1e1e" stroke-width="2" fill="none"></path></g><g transform="translate(209 769.8349609649733) rotate(0 1.0568968418054396 81.32052736845797)"><path d="M11.3 139.51 C8.57 143.32, 7.57 148.39, 3.46 163.25 M11.3 139.51 C8.88 148.68, 5.64 157.57, 3.46 163.25" stroke="#1e1e1e" stroke-width="2" fill="none"></path></g></g><mask></mask><g stroke-linecap="round"><g transform="translate(202 559.8349609649733) rotate(0 1.601009925827384 82.68816460983827)"><path d="M-0.61 -0.82 C0.03 26.69, 2.91 137.39, 3.81 165.12 M1.27 1.36 C1.74 28.99, 2.24 138.64, 2.77 166.2" stroke="#1e1e1e" stroke-width="2" fill="none"></path></g><g transform="translate(202 559.8349609649733) rotate(0 1.601009925827384 82.68816460983827)"><path d="M-6.04 142.8 C-4.78 149.47, -2.27 158.06, 2.77 166.2 M-6.04 142.8 C-3.22 149.14, -0.7 155.16, 2.77 166.2" stroke="#1e1e1e" stroke-width="2" fill="none"></path></g><g transform="translate(202 559.8349609649733) rotate(0 1.601009925827384 82.68816460983827)"><path d="M11.06 142.61 C7.24 149.26, 4.69 157.9, 2.77 166.2 M11.06 142.61 C9.33 149.09, 7.32 155.17, 2.77 166.2" stroke="#1e1e1e" stroke-width="2" fill="none"></path></g></g><mask></mask><g transform="translate(122.16863878122422 481.3341277278953) rotate(0 33.81936018117807 16.000833237078048)"><text x="0" y="22.426767865088603" font-family="Virgil, Segoe UI Emoji" font-size="25.601333179324886px" fill="#1e1e1e" text-anchor="start" style="white-space: pre;" direction="ltr" dominant-baseline="alphabetic">"main"</text></g><g transform="translate(20 929.8349609649733) rotate(0 75.61399841308594 17.5)"><text x="0" y="24.528" font-family="Virgil, Segoe UI Emoji" font-size="28px" fill="#1e1e1e" text-anchor="start" style="white-space: pre;" direction="ltr" dominant-baseline="alphabetic">...234fa23</text></g><g transform="translate(10 540.8349609649733) rotate(0 74.21400451660156 17.5)"><text x="0" y="24.528" font-family="Virgil, Segoe UI Emoji" font-size="28px" fill="#1e1e1e" text-anchor="start" style="white-space: pre;" direction="ltr" dominant-baseline="alphabetic">...aa4fa24</text></g><g stroke-linecap="round" transform="translate(666 1123.8349609649733) rotate(0 10.5 13.5)"><path d="M13.51 0.66 C15.68 1.06, 17.78 2.83, 19.08 5.13 C20.39 7.43, 21.5 11.48, 21.31 14.47 C21.12 17.46, 19.6 21, 17.93 23.09 C16.27 25.18, 13.51 26.7, 11.3 27.01 C9.09 27.33, 6.52 26.62, 4.69 24.98 C2.86 23.34, 0.97 20.01, 0.33 17.19 C-0.3 14.36, -0.05 10.68, 0.87 8.05 C1.79 5.42, 3.81 2.61, 5.85 1.41 C7.9 0.22, 11.87 0.95, 13.13 0.89 C14.38 0.83, 13.42 0.82, 13.39 1.04 M9.29 -0.5 C11.52 -1, 15.35 0.54, 17.24 2.37 C19.13 4.2, 20.11 7.55, 20.63 10.49 C21.16 13.44, 21.49 17.59, 20.4 20.02 C19.31 22.45, 16.26 24.12, 14.11 25.08 C11.95 26.05, 9.54 26.43, 7.46 25.8 C5.38 25.17, 2.81 23.72, 1.63 21.32 C0.44 18.93, 0.1 14.4, 0.36 11.42 C0.62 8.45, 1.71 5.39, 3.17 3.48 C4.64 1.57, 8.07 0.37, 9.17 -0.05 C10.26 -0.46, 9.54 0.73, 9.74 0.98" stroke="#1e1e1e" stroke-width="2" fill="none"></path></g><g stroke-linecap="round" transform="translate(661 934.8349609649733) rotate(0 17 15.5)"><path d="M14.52 0.31 C17.81 -0.42, 22.17 0.85, 25.27 2.51 C28.36 4.17, 31.79 7.22, 33.1 10.24 C34.41 13.27, 34.42 17.52, 33.14 20.66 C31.86 23.8, 28.58 27.39, 25.41 29.06 C22.24 30.72, 17.72 31.28, 14.12 30.65 C10.51 30.02, 6.13 27.85, 3.78 25.29 C1.43 22.73, -0.04 18.64, 0.02 15.29 C0.08 11.94, 1.57 7.75, 4.15 5.18 C6.72 2.62, 13.46 0.73, 15.45 -0.1 C17.43 -0.92, 16.02 -0.04, 16.05 0.23 M16.04 0.58 C19.35 0.38, 24.41 1.27, 27.39 3.32 C30.37 5.37, 33.08 9.73, 33.93 12.88 C34.79 16.04, 34.45 19.42, 32.54 22.24 C30.63 25.05, 26.07 28.48, 22.47 29.77 C18.86 31.07, 14.2 31, 10.91 30.02 C7.63 29.04, 4.66 26.7, 2.76 23.89 C0.86 21.08, -0.93 16.6, -0.49 13.17 C-0.04 9.74, 2.6 5.49, 5.43 3.29 C8.26 1.09, 14.52 0.38, 16.49 -0.03 C18.46 -0.43, 17.22 0.68, 17.25 0.85" stroke="#1e1e1e" stroke-width="2" fill="none"></path></g><g stroke-linecap="round" transform="translate(655 741.8349609649733) rotate(0 18 14.5)"><path d="M19.16 -0.39 C22.8 -0.43, 27.93 1.77, 30.7 4.01 C33.46 6.25, 35.41 9.97, 35.75 13.06 C36.08 16.15, 34.81 19.96, 32.72 22.56 C30.62 25.16, 26.85 27.8, 23.19 28.67 C19.54 29.53, 14.33 29.02, 10.78 27.75 C7.23 26.47, 3.6 23.78, 1.88 21.02 C0.16 18.26, -0.4 14.14, 0.46 11.18 C1.33 8.22, 3.89 5.08, 7.05 3.25 C10.2 1.43, 17.23 0.63, 19.39 0.22 C21.54 -0.19, 19.97 0.59, 19.96 0.79 M22.41 0.13 C26.1 0.71, 29.84 3.31, 32.18 5.9 C34.52 8.49, 36.7 12.75, 36.44 15.69 C36.19 18.62, 33.34 21.42, 30.65 23.51 C27.95 25.59, 24 27.6, 20.27 28.19 C16.53 28.77, 11.4 28.68, 8.21 27.02 C5.03 25.36, 2.3 21.29, 1.15 18.24 C0.01 15.18, 0 11.46, 1.32 8.69 C2.63 5.91, 5.62 2.86, 9.03 1.58 C12.45 0.31, 19.59 1.15, 21.8 1.01 C24.01 0.86, 22.44 0.5, 22.28 0.7" stroke="#1e1e1e" stroke-width="2" fill="none"></path></g><g stroke-linecap="round" transform="translate(658 532.8349609649733) rotate(0 12 15.5)"><path d="M14.49 0.8 C16.86 1.33, 20.14 3.67, 21.76 6.25 C23.38 8.83, 24.38 12.92, 24.21 16.26 C24.03 19.6, 22.5 23.87, 20.72 26.3 C18.94 28.73, 16.11 30.5, 13.53 30.83 C10.95 31.17, 7.4 30.17, 5.23 28.33 C3.06 26.48, 1.18 22.98, 0.48 19.76 C-0.21 16.53, -0.04 12.05, 1.07 8.99 C2.18 5.93, 4.73 2.79, 7.12 1.37 C9.52 -0.05, 13.97 0.56, 15.45 0.48 C16.93 0.4, 16.1 0.56, 16.01 0.9 M9.94 0.13 C12.46 -0.57, 16.13 1.07, 18.47 2.69 C20.81 4.3, 23.3 6.77, 23.96 9.81 C24.63 12.85, 23.59 17.75, 22.45 20.93 C21.31 24.11, 19.2 27.21, 17.12 28.89 C15.04 30.58, 12.48 31.63, 9.95 31.01 C7.43 30.4, 3.69 27.94, 1.98 25.21 C0.27 22.47, -0.46 17.93, -0.32 14.61 C-0.17 11.29, 1.02 7.6, 2.88 5.28 C4.73 2.97, 9.59 1.61, 10.82 0.72 C12.05 -0.18, 10.27 -0.28, 10.26 -0.1" stroke="#1e1e1e" stroke-width="2" fill="none"></path></g><g stroke-linecap="round"><g transform="translate(673 972.8349609649733) rotate(0 3.302088918369236 75.99417860271407)"><path d="M0.28 1.17 C1.36 26.51, 6.68 126.14, 7.63 151.25 M-1.03 0.74 C-0.16 25.76, 5.45 124.4, 7.02 149.26" stroke="#1e1e1e" stroke-width="2" fill="none"></path></g><g transform="translate(673 972.8349609649733) rotate(0 3.302088918369236 75.99417860271407)"><path d="M-2.9 126.31 C2.84 136.45, 5.24 142.85, 7.02 149.26 M-2.9 126.31 C1.24 134.13, 4.59 143.28, 7.02 149.26" stroke="#1e1e1e" stroke-width="2" fill="none"></path></g><g transform="translate(673 972.8349609649733) rotate(0 3.302088918369236 75.99417860271407)"><path d="M14.17 125.3 C13.13 135.88, 8.75 142.68, 7.02 149.26 M14.17 125.3 C12.04 133.44, 9.12 142.96, 7.02 149.26" stroke="#1e1e1e" stroke-width="2" fill="none"></path></g></g><mask></mask><g stroke-linecap="round"><g transform="translate(674 774.8349609649733) rotate(0 1.2874112107139126 80.97588757278398)"><path d="M1.17 0.63 C1.68 27.42, 1.97 134.1, 2.25 161.01 M0.33 -0.08 C0.76 26.8, 1.07 134.76, 1.43 162.03" stroke="#1e1e1e" stroke-width="2" fill="none"></path></g><g transform="translate(674 774.8349609649733) rotate(0 1.2874112107139126 80.97588757278398)"><path d="M-7.3 138.6 C-4.13 144.44, -4.79 150.88, 1.43 162.03 M-7.3 138.6 C-5.28 146.03, -1.85 153.69, 1.43 162.03" stroke="#1e1e1e" stroke-width="2" fill="none"></path></g><g transform="translate(674 774.8349609649733) rotate(0 1.2874112107139126 80.97588757278398)"><path d="M9.8 138.48 C8.95 144.51, 4.28 150.98, 1.43 162.03 M9.8 138.48 C6.5 146.02, 4.61 153.72, 1.43 162.03" stroke="#1e1e1e" stroke-width="2" fill="none"></path></g></g><mask></mask><g stroke-linecap="round"><g transform="translate(667 564.8349609649733) rotate(0 2.3563848233595763 83.07072403954342)"><path d="M0.63 0.25 C1.09 27.85, 2.43 139.24, 3.01 166.81 M-0.49 -0.67 C0.3 27.11, 4.55 137.2, 5.21 165.11" stroke="#1e1e1e" stroke-width="2" fill="none"></path></g><g transform="translate(667 564.8349609649733) rotate(0 2.3563848233595763 83.07072403954342)"><path d="M-4.09 141.9 C-0.44 147.71, 3.5 157.09, 5.21 165.11 M-4.09 141.9 C-1.27 148.38, 1.64 154.49, 5.21 165.11" stroke="#1e1e1e" stroke-width="2" fill="none"></path></g><g transform="translate(667 564.8349609649733) rotate(0 2.3563848233595763 83.07072403954342)"><path d="M13 141.36 C11.12 147.44, 9.54 156.99, 5.21 165.11 M13 141.36 C11.16 147.88, 9.4 154.13, 5.21 165.11" stroke="#1e1e1e" stroke-width="2" fill="none"></path></g></g><mask></mask><g transform="translate(587.1686387812242 486.3341277278953) rotate(0 33.819360181178126 16.000833237078048)"><text x="0" y="22.426767865088603" font-family="Virgil, Segoe UI Emoji" font-size="25.601333179324886px" fill="#1e1e1e" text-anchor="start" style="white-space: pre;" direction="ltr" dominant-baseline="alphabetic">"main"</text></g><g transform="translate(485 934.8349609649733) rotate(0 75.61399841308594 17.5)"><text x="0" y="24.528" font-family="Virgil, Segoe UI Emoji" font-size="28px" fill="#1e1e1e" text-anchor="start" style="white-space: pre;" direction="ltr" dominant-baseline="alphabetic">...234fa23</text></g><g transform="translate(475 545.8349609649733) rotate(0 74.21400451660156 17.5)"><text x="0" y="24.528" font-family="Virgil, Segoe UI Emoji" font-size="28px" fill="#1e1e1e" text-anchor="start" style="white-space: pre;" direction="ltr" dominant-baseline="alphabetic">...aa4fa24</text></g><g transform="translate(689.1686387812242 483.3341277278953) rotate(0 57.43659210205078 16.000833237078055)"><text x="0" y="22.426767865088603" font-family="Virgil, Segoe UI Emoji" font-size="25.601333179324886px" fill="#1e1e1e" text-anchor="start" style="white-space: pre;" direction="ltr" dominant-baseline="alphabetic">"tutorial"</text></g><g stroke-linecap="round" transform="translate(1135 1113.8349609649733) rotate(0 10.5 13.5)"><path d="M7.78 0.49 C9.83 -0.31, 12.94 0.62, 14.93 1.89 C16.91 3.16, 18.78 5.61, 19.71 8.11 C20.64 10.61, 21.02 14.17, 20.5 16.91 C19.97 19.65, 18.37 22.93, 16.56 24.54 C14.75 26.15, 11.9 26.86, 9.62 26.57 C7.34 26.28, 4.5 24.81, 2.88 22.79 C1.26 20.78, 0.01 17.31, -0.1 14.48 C-0.22 11.65, 0.77 8.11, 2.19 5.8 C3.6 3.49, 7.34 1.53, 8.39 0.62 C9.44 -0.29, 8.46 0.27, 8.5 0.36 M11.08 -0.71 C13.29 -0.84, 16 1.31, 17.66 3.21 C19.31 5.12, 20.78 7.73, 21.01 10.71 C21.24 13.69, 20.3 18.44, 19.04 21.11 C17.77 23.78, 15.46 25.9, 13.42 26.73 C11.37 27.56, 8.82 27.11, 6.78 26.08 C4.75 25.05, 2.32 23.14, 1.19 20.54 C0.06 17.93, -0.37 13.41, -0.01 10.47 C0.34 7.53, 1.43 4.7, 3.32 2.88 C5.21 1.06, 10.14 0.07, 11.33 -0.46 C12.52 -1, 10.57 -0.52, 10.48 -0.33" stroke="#1e1e1e" stroke-width="2" fill="none"></path></g><g stroke-linecap="round" transform="translate(1130 924.8349609649733) rotate(0 17 15.5)"><path d="M20.86 0.91 C24.25 1.46, 28.17 3.82, 30.34 6.36 C32.52 8.9, 34.04 12.86, 33.9 16.14 C33.76 19.42, 31.97 23.64, 29.5 26.05 C27.03 28.46, 22.76 30.2, 19.09 30.59 C15.42 30.97, 10.57 30.14, 7.48 28.37 C4.39 26.6, 1.51 23.09, 0.52 19.95 C-0.46 16.81, 0.09 12.55, 1.59 9.54 C3.09 6.53, 6.26 3.42, 9.52 1.91 C12.78 0.4, 19.11 0.71, 21.15 0.48 C23.18 0.25, 21.73 0.29, 21.72 0.53 M16.77 -0.11 C20.18 -0.39, 24.95 0.46, 27.69 2.65 C30.43 4.83, 32.57 9.56, 33.2 13.01 C33.83 16.45, 33.12 20.5, 31.47 23.32 C29.83 26.13, 26.66 28.66, 23.33 29.9 C20.01 31.13, 15.03 31.84, 11.53 30.72 C8.03 29.61, 4.31 26.13, 2.32 23.2 C0.33 20.27, -1.08 16.42, -0.41 13.13 C0.26 9.84, 3.55 5.74, 6.33 3.45 C9.12 1.17, 14.58 0.04, 16.29 -0.59 C18.01 -1.23, 16.68 -0.64, 16.64 -0.36" stroke="#1e1e1e" stroke-width="2" fill="none"></path></g><g stroke-linecap="round" transform="translate(1124 731.8349609649733) rotate(0 18 14.5)"><path d="M18.8 -0.04 C22.51 -0.18, 27.54 1.44, 30.44 3.57 C33.34 5.7, 35.74 9.6, 36.21 12.72 C36.69 15.84, 35.5 19.64, 33.3 22.27 C31.1 24.9, 26.8 27.53, 23.01 28.49 C19.22 29.44, 14.09 29.19, 10.57 27.98 C7.06 26.78, 3.61 24.03, 1.92 21.26 C0.23 18.49, -0.4 14.46, 0.45 11.37 C1.3 8.27, 3.82 4.65, 7.03 2.7 C10.25 0.75, 17.51 0.05, 19.73 -0.35 C21.94 -0.74, 20.34 -0.05, 20.31 0.31 M13.88 -0.29 C17.27 -1.04, 22.17 0.57, 25.52 2.13 C28.88 3.7, 32.36 6.39, 34 9.13 C35.63 11.87, 36.36 15.57, 35.34 18.56 C34.32 21.55, 31.12 25.42, 27.87 27.08 C24.62 28.73, 19.73 28.93, 15.81 28.48 C11.9 28.04, 6.92 26.65, 4.4 24.4 C1.87 22.15, 0.85 18.15, 0.66 14.97 C0.48 11.79, 1.08 7.85, 3.28 5.31 C5.47 2.78, 12.19 0.58, 13.85 -0.26 C15.52 -1.11, 13.29 -0.09, 13.29 0.24" stroke="#1e1e1e" stroke-width="2" fill="none"></path></g><g stroke-linecap="round" transform="translate(1127 522.8349609649733) rotate(0 12 15.5)"><path d="M14.54 -0.13 C17.08 0.33, 20.19 3.15, 21.83 5.81 C23.47 8.47, 24.52 12.47, 24.36 15.84 C24.2 19.21, 22.7 23.48, 20.89 26.02 C19.07 28.56, 15.99 30.61, 13.45 31.1 C10.91 31.59, 7.81 30.73, 5.65 28.97 C3.49 27.21, 1.33 23.78, 0.48 20.53 C-0.38 17.28, -0.45 12.69, 0.54 9.5 C1.52 6.3, 4 2.86, 6.4 1.34 C8.8 -0.19, 13.5 0.4, 14.95 0.36 C16.4 0.32, 15.24 0.83, 15.1 1.12 M11.09 0.64 C13.42 0.52, 16.76 1.79, 18.88 3.72 C20.99 5.64, 23.19 8.97, 23.79 12.22 C24.4 15.48, 23.74 20.38, 22.5 23.25 C21.25 26.12, 18.78 28.28, 16.32 29.42 C13.86 30.57, 10.04 31.16, 7.74 30.14 C5.43 29.12, 3.78 26.18, 2.47 23.29 C1.16 20.4, -0.37 16.11, -0.11 12.79 C0.16 9.46, 2.21 5.54, 4.06 3.33 C5.91 1.13, 9.81 0.08, 11.01 -0.44 C12.21 -0.96, 11.09 -0.06, 11.26 0.23" stroke="#1e1e1e" stroke-width="2" fill="none"></path></g><g stroke-linecap="round"><g transform="translate(1142 962.8349609649733) rotate(0 3.477096370291065 75.63458954619244)"><path d="M1.05 -1.06 C2.13 24.2, 6.02 125.4, 6.82 150.87 M0.14 0.99 C1.01 26.52, 4.45 127.53, 5.77 152.33" stroke="#1e1e1e" stroke-width="2" fill="none"></path></g><g transform="translate(1142 962.8349609649733) rotate(0 3.477096370291065 75.63458954619244)"><path d="M-3.76 129.22 C-2.55 136.41, 2.12 142.31, 5.77 152.33 M-3.76 129.22 C-1.09 137.6, 3.13 145.66, 5.77 152.33" stroke="#1e1e1e" stroke-width="2" fill="none"></path></g><g transform="translate(1142 962.8349609649733) rotate(0 3.477096370291065 75.63458954619244)"><path d="M13.33 128.5 C8.93 136.07, 8.01 142.21, 5.77 152.33 M13.33 128.5 C9.8 137.26, 7.84 145.59, 5.77 152.33" stroke="#1e1e1e" stroke-width="2" fill="none"></path></g></g><mask></mask><g stroke-linecap="round"><g transform="translate(1143 764.8349609649733) rotate(0 0.5835249737277763 80.74900574119762)"><path d="M-0.18 -0.13 C-0.22 27.17, 0.55 135.58, 0.81 162.75 M-1.74 -1.25 C-1.52 25.81, 2.56 133.97, 2.9 161.02" stroke="#1e1e1e" stroke-width="2" fill="none"></path></g><g transform="translate(1143 764.8349609649733) rotate(0 0.5835249737277763 80.74900574119762)"><path d="M-6.27 137.76 C-3.15 144.8, 1.87 154.76, 2.9 161.02 M-6.27 137.76 C-2.89 146.22, 0.9 155.34, 2.9 161.02" stroke="#1e1e1e" stroke-width="2" fill="none"></path></g><g transform="translate(1143 764.8349609649733) rotate(0 0.5835249737277763 80.74900574119762)"><path d="M10.83 137.31 C7.33 144.5, 5.73 154.64, 2.9 161.02 M10.83 137.31 C7.81 145.94, 5.21 155.24, 2.9 161.02" stroke="#1e1e1e" stroke-width="2" fill="none"></path></g></g><mask></mask><g stroke-linecap="round"><g transform="translate(1136 554.8349609649733) rotate(0 2.2970203597657246 83.4914288158901)"><path d="M-1.19 0.75 C-0.59 28.58, 2.66 139.33, 3.39 166.89 M0.39 0.09 C1.4 27.62, 4.9 137.34, 5.78 165.23" stroke="#1e1e1e" stroke-width="2" fill="none"></path></g><g transform="translate(1136 554.8349609649733) rotate(0 2.2970203597657246 83.4914288158901)"><path d="M-3.51 142.02 C0.35 147.71, 3.24 154.01, 5.78 165.23 M-3.51 142.02 C-0.17 149.36, 3.01 156.14, 5.78 165.23" stroke="#1e1e1e" stroke-width="2" fill="none"></path></g><g transform="translate(1136 554.8349609649733) rotate(0 2.2970203597657246 83.4914288158901)"><path d="M13.58 141.48 C12.58 147.15, 10.59 153.6, 5.78 165.23 M13.58 141.48 C11.67 148.94, 9.6 155.89, 5.78 165.23" stroke="#1e1e1e" stroke-width="2" fill="none"></path></g></g><mask></mask><g transform="translate(1033.1686387812242 487.3341277278953) rotate(0 33.819360181178126 16.000833237078048)"><text x="0" y="22.426767865088603" font-family="Virgil, Segoe UI Emoji" font-size="25.601333179324886px" fill="#1e1e1e" text-anchor="start" style="white-space: pre;" direction="ltr" dominant-baseline="alphabetic">"main"</text></g><g transform="translate(954 924.8349609649733) rotate(0 75.61399841308594 17.5)"><text x="0" y="24.528" font-family="Virgil, Segoe UI Emoji" font-size="28px" fill="#1e1e1e" text-anchor="start" style="white-space: pre;" direction="ltr" dominant-baseline="alphabetic">...234fa23</text></g><g transform="translate(944 534.8349609649733) rotate(0 74.21400451660156 17.5)"><text x="0" y="24.528" font-family="Virgil, Segoe UI Emoji" font-size="28px" fill="#1e1e1e" text-anchor="start" style="white-space: pre;" direction="ltr" dominant-baseline="alphabetic">...aa4fa24</text></g><g transform="translate(1168.1686387812242 296.3341277278953) rotate(0 57.43659210205078 16.000833237078055)"><text x="0" y="22.426767865088603" font-family="Virgil, Segoe UI Emoji" font-size="25.601333179324886px" fill="#1e1e1e" text-anchor="start" style="white-space: pre;" direction="ltr" dominant-baseline="alphabetic">"tutorial"</text></g><g stroke-linecap="round" transform="translate(1125 308.83496096497333) rotate(0 12 15.5)"><path d="M14.13 -0.16 C16.62 0.22, 19.66 2.86, 21.29 5.53 C22.93 8.21, 24.05 12.51, 23.94 15.88 C23.84 19.25, 22.32 23.23, 20.65 25.73 C18.98 28.23, 16.44 30.41, 13.91 30.88 C11.38 31.35, 7.58 30.31, 5.45 28.56 C3.32 26.8, 1.84 23.43, 1.11 20.36 C0.38 17.28, 0.24 13.19, 1.06 10.12 C1.89 7.05, 3.75 3.58, 6.08 1.94 C8.41 0.29, 13.58 0.5, 15.04 0.26 C16.51 0.02, 14.98 0.13, 14.87 0.47 M10.27 -0.49 C12.6 -1.15, 15.54 -0.03, 17.67 1.78 C19.8 3.6, 22.06 7.22, 23.06 10.4 C24.05 13.57, 24.6 17.7, 23.64 20.82 C22.68 23.94, 19.61 27.39, 17.28 29.13 C14.96 30.86, 12.04 31.86, 9.69 31.22 C7.33 30.57, 4.68 27.97, 3.14 25.27 C1.6 22.58, 0.58 18.45, 0.43 15.04 C0.29 11.62, 0.79 7.28, 2.29 4.78 C3.79 2.28, 8.21 0.86, 9.45 0.05 C10.7 -0.75, 9.51 -0.35, 9.78 -0.05" stroke="#1e1e1e" stroke-width="2" fill="none"></path></g><g stroke-linecap="round"><g transform="translate(1134 340.83496096497333) rotate(0 1.8478952596894942 83.21522038625552)"><path d="M0.88 -0.9 C1.36 26.77, 3.46 138.03, 3.82 165.87 M-0.12 1.24 C0.1 29.12, 1.86 139.63, 2.77 167.33" stroke="#1e1e1e" stroke-width="2" fill="none"></path></g><g transform="translate(1134 340.83496096497333) rotate(0 1.8478952596894942 83.21522038625552)"><path d="M-6.32 144.04 C-4.42 152.49, 0.31 159.95, 2.77 167.33 M-6.32 144.04 C-3.06 150.26, -0.43 158.23, 2.77 167.33" stroke="#1e1e1e" stroke-width="2" fill="none"></path></g><g transform="translate(1134 340.83496096497333) rotate(0 1.8478952596894942 83.21522038625552)"><path d="M10.78 143.65 C6.21 152.37, 4.45 159.98, 2.77 167.33 M10.78 143.65 C8.77 149.97, 6.14 158.06, 2.77 167.33" stroke="#1e1e1e" stroke-width="2" fill="none"></path></g></g><mask></mask><g stroke-linecap="round" transform="translate(1519 1110.8349609649733) rotate(0 10.5 13.5)"><path d="M10.9 -0.22 C13.17 -0.24, 16.26 1.9, 17.93 3.82 C19.59 5.75, 20.7 8.51, 20.9 11.3 C21.1 14.09, 20.34 17.99, 19.12 20.57 C17.89 23.15, 15.6 25.82, 13.56 26.8 C11.51 27.77, 8.97 27.5, 6.85 26.43 C4.73 25.36, 1.92 23.05, 0.84 20.38 C-0.25 17.72, -0.14 13.36, 0.33 10.44 C0.81 7.53, 1.85 4.64, 3.69 2.91 C5.53 1.17, 10.07 0.49, 11.35 0.03 C12.64 -0.44, 11.44 -0.16, 11.41 0.11 M10.82 0.48 C12.92 0.34, 15.99 1.41, 17.59 3.29 C19.19 5.17, 20.15 8.75, 20.39 11.76 C20.64 14.76, 20.06 18.77, 19.08 21.31 C18.1 23.86, 16.58 26.24, 14.51 27.03 C12.44 27.82, 8.82 27.22, 6.66 26.06 C4.51 24.9, 2.57 22.55, 1.59 20.07 C0.61 17.58, 0.44 13.97, 0.78 11.15 C1.12 8.33, 2.07 4.99, 3.64 3.16 C5.21 1.33, 8.9 0.72, 10.21 0.15 C11.53 -0.42, 11.34 -0.46, 11.51 -0.25" stroke="#1e1e1e" stroke-width="2" fill="none"></path></g><g stroke-linecap="round" transform="translate(1514 921.8349609649733) rotate(0 17 15.5)"><path d="M14.1 0.67 C17.57 -0.04, 23.06 0.65, 26.19 2.22 C29.32 3.79, 31.77 7.01, 32.89 10.1 C34.01 13.19, 34.09 17.57, 32.91 20.76 C31.72 23.94, 28.88 27.65, 25.75 29.23 C22.62 30.82, 17.72 30.92, 14.13 30.28 C10.54 29.64, 6.64 27.94, 4.22 25.39 C1.8 22.84, -0.36 18.29, -0.38 14.98 C-0.4 11.66, 1.55 8, 4.12 5.49 C6.7 2.97, 13.16 0.73, 15.07 -0.13 C16.99 -0.98, 15.54 0.06, 15.61 0.37 M19.43 0.22 C22.84 0.29, 26.77 2.02, 29.23 4.35 C31.69 6.69, 33.83 10.7, 34.19 14.22 C34.55 17.73, 33.47 22.71, 31.38 25.44 C29.3 28.17, 25.33 29.9, 21.66 30.61 C18 31.32, 12.75 31.09, 9.4 29.7 C6.05 28.3, 2.94 25.39, 1.56 22.23 C0.17 19.07, 0.03 14.11, 1.08 10.73 C2.14 7.36, 4.88 3.63, 7.88 1.98 C10.88 0.32, 17.35 1.01, 19.09 0.82 C20.84 0.62, 18.43 0.76, 18.38 0.83" stroke="#1e1e1e" stroke-width="2" fill="none"></path></g><g stroke-linecap="round" transform="translate(1508 728.8349609649733) rotate(0 18 14.5)"><path d="M18.18 0.45 C21.82 0.22, 26.5 1.17, 29.36 3.06 C32.21 4.94, 34.65 8.61, 35.33 11.78 C36.01 14.94, 35.23 19.27, 33.45 22.04 C31.66 24.81, 28.25 27.31, 24.62 28.4 C20.99 29.5, 15.34 29.77, 11.68 28.63 C8.03 27.49, 4.64 24.32, 2.68 21.57 C0.73 18.83, -0.65 15.18, -0.04 12.18 C0.57 9.17, 3.35 5.61, 6.35 3.54 C9.35 1.47, 15.89 0.26, 17.94 -0.24 C19.99 -0.75, 18.6 0.19, 18.65 0.51 M19.21 -0.09 C22.79 -0.14, 27.17 1.92, 29.89 4.2 C32.61 6.48, 34.89 10.42, 35.52 13.59 C36.16 16.75, 35.78 20.75, 33.72 23.22 C31.65 25.69, 26.91 27.62, 23.15 28.41 C19.4 29.2, 14.61 29.13, 11.16 27.96 C7.71 26.78, 4.3 24.11, 2.46 21.35 C0.63 18.58, -0.55 14.42, 0.15 11.36 C0.86 8.3, 3.43 4.97, 6.7 2.99 C9.98 1.02, 17.67 -0.06, 19.8 -0.5 C21.94 -0.94, 19.7 0.06, 19.49 0.36" stroke="#1e1e1e" stroke-width="2" fill="none"></path></g><g stroke-linecap="round" transform="translate(1511 519.8349609649733) rotate(0 12 15.5)"><path d="M13.28 0.05 C15.74 -0.06, 18.37 1.75, 20.15 4 C21.93 6.26, 23.58 10.2, 23.96 13.59 C24.35 16.98, 23.83 21.62, 22.45 24.35 C21.07 27.07, 18.16 29.05, 15.67 29.96 C13.19 30.86, 10.02 31.1, 7.55 29.78 C5.07 28.46, 2.04 25.02, 0.83 22.03 C-0.37 19.05, -0.37 15.12, 0.32 11.9 C1 8.68, 2.83 4.7, 4.94 2.74 C7.04 0.77, 11.48 0.47, 12.95 0.1 C14.41 -0.28, 13.67 0.22, 13.73 0.49 M11.97 -0.49 C14.37 -0.75, 17.91 0.99, 20 3.34 C22.1 5.7, 24.06 10.29, 24.57 13.63 C25.08 16.97, 24.49 20.59, 23.06 23.39 C21.64 26.19, 18.54 29.24, 16.03 30.44 C13.51 31.64, 10.31 31.86, 7.96 30.59 C5.62 29.32, 3.19 25.88, 1.94 22.8 C0.68 19.72, 0.01 15.2, 0.44 12.11 C0.87 9.02, 2.65 6.21, 4.5 4.26 C6.36 2.32, 10.29 1.15, 11.56 0.42 C12.84 -0.31, 12.08 -0.35, 12.14 -0.11" stroke="#1e1e1e" stroke-width="2" fill="none"></path></g><g stroke-linecap="round"><g transform="translate(1526 959.8349609649733) rotate(0 2.4406230809074714 75.80673848059959)"><path d="M-0.08 0.33 C0.98 25.82, 5.1 127.03, 6.46 152.15 M-1.58 -0.54 C-0.74 24.71, 3.66 125.15, 5.23 150.63" stroke="#1e1e1e" stroke-width="2" fill="none"></path></g><g transform="translate(1526 959.8349609649733) rotate(0 2.4406230809074714 75.80673848059959)"><path d="M-4.51 127.61 C-1.08 133.85, 3.3 143.68, 5.23 150.63 M-4.51 127.61 C-1.58 134.07, 2.31 141.99, 5.23 150.63" stroke="#1e1e1e" stroke-width="2" fill="none"></path></g><g transform="translate(1526 959.8349609649733) rotate(0 2.4406230809074714 75.80673848059959)"><path d="M12.57 126.73 C10.7 133.24, 9.79 143.33, 5.23 150.63 M12.57 126.73 C10.32 133.35, 9.03 141.53, 5.23 150.63" stroke="#1e1e1e" stroke-width="2" fill="none"></path></g></g><mask></mask><g stroke-linecap="round"><g transform="translate(1526.9999983623247 761.8348283132877) rotate(0 1.0821068650934649 79.82154408128821)"><path d="M0.33 -0.54 C0.98 26.17, 2.84 133.65, 3.11 160.18 M-0.95 1.79 C-0.3 28.2, 2.4 132.3, 2.77 158.62" stroke="#1e1e1e" stroke-width="2" fill="none"></path></g><g transform="translate(1526.9999983623247 761.8348283132877) rotate(0 1.0821068650934649 79.82154408128821)"><path d="M-6.27 135.31 C-5.04 142.73, -0.21 146.39, 2.77 158.62 M-6.27 135.31 C-4.62 142.45, -1.3 148.31, 2.77 158.62" stroke="#1e1e1e" stroke-width="2" fill="none"></path></g><g transform="translate(1526.9999983623247 761.8348283132877) rotate(0 1.0821068650934649 79.82154408128821)"><path d="M10.83 134.96 C8.01 142.5, 8.79 146.25, 2.77 158.62 M10.83 134.96 C7.97 142.2, 6.79 148.16, 2.77 158.62" stroke="#1e1e1e" stroke-width="2" fill="none"></path></g></g><mask></mask><g stroke-linecap="round"><g transform="translate(1519.9999386216225 551.832413762308) rotate(0 2.2685848273841884 84.15170077859263)"><path d="M-0.54 1.15 C0.32 28.77, 4.39 138.7, 5.08 166.04 M1.38 0.71 C2.18 28.5, 4.49 140.04, 4.69 167.6" stroke="#1e1e1e" stroke-width="2" fill="none"></path></g><g transform="translate(1519.9999386216225 551.832413762308) rotate(0 2.2685848273841884 84.15170077859263)"><path d="M-4.21 144.24 C0.38 152.92, 1.14 157.25, 4.69 167.6 M-4.21 144.24 C-1.14 150.06, 0.64 154.21, 4.69 167.6" stroke="#1e1e1e" stroke-width="2" fill="none"></path></g><g transform="translate(1519.9999386216225 551.832413762308) rotate(0 2.2685848273841884 84.15170077859263)"><path d="M12.89 143.98 C12.46 152.66, 8.2 157.07, 4.69 167.6 M12.89 143.98 C12 149.76, 9.83 153.98, 4.69 167.6" stroke="#1e1e1e" stroke-width="2" fill="none"></path></g></g><mask></mask><g transform="translate(1417.1686387812242 299.3341277278953) rotate(0 33.81936264038086 16.000833237078055)"><text x="0" y="22.426767865088603" font-family="Virgil, Segoe UI Emoji" font-size="25.601333179324886px" fill="#1e1e1e" text-anchor="start" style="white-space: pre;" direction="ltr" dominant-baseline="alphabetic">"main"</text></g><g transform="translate(1338 921.8349609649733) rotate(0 75.61399841308594 17.5)"><text x="0" y="24.528" font-family="Virgil, Segoe UI Emoji" font-size="28px" fill="#1e1e1e" text-anchor="start" style="white-space: pre;" direction="ltr" dominant-baseline="alphabetic">...234fa23</text></g><g transform="translate(1328 531.8349609649733) rotate(0 74.21400451660156 17.5)"><text x="0" y="24.528" font-family="Virgil, Segoe UI Emoji" font-size="28px" fill="#1e1e1e" text-anchor="start" style="white-space: pre;" direction="ltr" dominant-baseline="alphabetic">...aa4fa24</text></g><g transform="translate(1726.1686387812242 309.3341277278953) rotate(0 57.43659210205078 16.000833237078055)"><text x="0" y="22.426767865088603" font-family="Virgil, Segoe UI Emoji" font-size="25.601333179324886px" fill="#1e1e1e" text-anchor="start" style="white-space: pre;" direction="ltr" dominant-baseline="alphabetic">"tutorial"</text></g><g stroke-linecap="round" transform="translate(1683 321.83496096497333) rotate(0 12 15.5)"><path d="M10.64 -0.28 C13.02 -0.94, 16.68 0.66, 18.74 2.44 C20.8 4.22, 22.29 7.22, 23.01 10.38 C23.74 13.54, 24 18.3, 23.11 21.39 C22.22 24.48, 19.97 27.38, 17.67 28.93 C15.38 30.48, 11.79 31.33, 9.31 30.7 C6.83 30.07, 4.3 27.74, 2.79 25.15 C1.28 22.56, 0.19 18.42, 0.24 15.15 C0.28 11.87, 1.31 8.02, 3.06 5.5 C4.81 2.98, 9.45 0.85, 10.72 0.02 C12 -0.81, 10.74 0.16, 10.71 0.51 M14.79 0.76 C17.11 1.38, 20.2 4.27, 21.79 6.83 C23.38 9.38, 24.49 12.95, 24.35 16.08 C24.21 19.2, 22.77 22.98, 20.96 25.57 C19.16 28.15, 16.21 31.06, 13.53 31.61 C10.84 32.16, 7.03 30.88, 4.86 28.86 C2.7 26.84, 1.22 22.7, 0.55 19.51 C-0.12 16.31, -0.08 12.55, 0.84 9.68 C1.76 6.8, 3.73 3.79, 6.08 2.26 C8.43 0.73, 13.51 0.62, 14.97 0.49 C16.43 0.35, 14.97 1.3, 14.86 1.45" stroke="#1e1e1e" stroke-width="2" fill="none"></path></g><g stroke-linecap="round"><g transform="translate(1682.677426758547 344.05306022346815) rotate(0 -79.86218365122045 79.76398871893564)"><path d="M0.07 -0.69 C-26.44 26.15, -132.83 133.65, -159.48 160.22 M-1.35 1.56 C-27.87 28.11, -133.33 132.01, -159.8 158.33" stroke="#1e1e1e" stroke-width="2" fill="none"></path></g><g transform="translate(1682.677426758547 344.05306022346815) rotate(0 -79.86218365122045 79.76398871893564)"><path d="M-149.11 135.72 C-153.23 143.68, -154.17 149.09, -159.8 158.33 M-149.11 135.72 C-151.95 140.01, -153.53 145.61, -159.8 158.33" stroke="#1e1e1e" stroke-width="2" fill="none"></path></g><g transform="translate(1682.677426758547 344.05306022346815) rotate(0 -79.86218365122045 79.76398871893564)"><path d="M-137.08 147.88 C-144.29 152.65, -148.39 154.84, -159.8 158.33 M-137.08 147.88 C-142.57 149.62, -146.7 152.65, -159.8 158.33" stroke="#1e1e1e" stroke-width="2" fill="none"></path></g></g><mask></mask><g stroke-linecap="round" transform="translate(1502 304.83496096497333) rotate(0 12 15.5)"><path d="M13.51 0.19 C15.84 0.31, 18.4 1.96, 20.14 4.32 C21.87 6.68, 23.64 11.04, 23.92 14.35 C24.19 17.67, 23.31 21.52, 21.8 24.21 C20.28 26.91, 17.27 29.61, 14.82 30.51 C12.37 31.4, 9.35 30.98, 7.1 29.58 C4.85 28.18, 2.45 25.09, 1.33 22.12 C0.22 19.15, -0.21 14.99, 0.44 11.75 C1.09 8.51, 3.08 4.6, 5.23 2.69 C7.38 0.78, 11.86 0.57, 13.31 0.29 C14.76 0.02, 13.8 0.74, 13.9 1.05 M12.3 0.57 C14.8 0.29, 18.23 1.43, 20.19 3.4 C22.16 5.37, 23.71 8.95, 24.08 12.4 C24.46 15.86, 23.91 21.1, 22.47 24.12 C21.03 27.14, 17.89 29.64, 15.44 30.55 C13 31.46, 10.15 30.77, 7.81 29.58 C5.47 28.4, 2.75 26.15, 1.39 23.43 C0.03 20.71, -0.87 16.56, -0.34 13.25 C0.19 9.94, 2.48 5.67, 4.58 3.58 C6.68 1.49, 11.05 1.36, 12.27 0.72 C13.5 0.09, 12.03 -0.48, 11.93 -0.25" stroke="#1e1e1e" stroke-width="2" fill="none"></path></g><g stroke-linecap="round"><g transform="translate(1511 336.83496096497333) rotate(0 2.619479424981364 82.7722050431557)"><path d="M1.2 0.44 C2 28.04, 4.23 137.3, 4.87 164.94 M0.37 -0.38 C1.08 27.4, 3.64 137.9, 4.38 165.92" stroke="#1e1e1e" stroke-width="2" fill="none"></path></g><g transform="translate(1511 336.83496096497333) rotate(0 2.619479424981364 82.7722050431557)"><path d="M-4.75 142.65 C-1.36 151.13, -1.06 158.49, 4.38 165.92 M-4.75 142.65 C-2.05 150.54, 0.98 157.35, 4.38 165.92" stroke="#1e1e1e" stroke-width="2" fill="none"></path></g><g transform="translate(1511 336.83496096497333) rotate(0 2.619479424981364 82.7722050431557)"><path d="M12.35 142.23 C10.5 151.01, 5.57 158.5, 4.38 165.92 M12.35 142.23 C9.5 150.16, 6.98 157.11, 4.38 165.92" stroke="#1e1e1e" stroke-width="2" fill="none"></path></g></g><mask></mask><g stroke-linecap="round" transform="translate(2063 1140.8349609649733) rotate(0 10.5 13.5)"><path d="M11.13 0.44 C13.12 0.45, 15.47 1.93, 17.13 3.78 C18.79 5.64, 20.76 8.7, 21.1 11.56 C21.43 14.43, 20.31 18.55, 19.13 20.96 C17.96 23.38, 16.25 25.2, 14.07 26.04 C11.89 26.88, 8.27 26.97, 6.07 26 C3.86 25.03, 1.84 22.81, 0.83 20.23 C-0.18 17.65, -0.61 13.48, -0.01 10.52 C0.59 7.56, 2.55 4.25, 4.41 2.47 C6.26 0.69, 9.97 0.2, 11.11 -0.14 C12.26 -0.49, 11.27 0.17, 11.27 0.4 M11.75 0.89 C13.7 1.16, 16.38 2.1, 17.95 4.14 C19.52 6.18, 21.12 10.21, 21.18 13.14 C21.23 16.06, 19.62 19.39, 18.27 21.69 C16.92 23.99, 15.27 26.35, 13.08 26.95 C10.88 27.55, 7.18 26.7, 5.11 25.31 C3.04 23.91, 1.44 21.27, 0.66 18.57 C-0.11 15.87, -0.27 11.87, 0.46 9.1 C1.19 6.34, 3.21 3.51, 5.05 1.97 C6.88 0.43, 10.42 0.02, 11.48 -0.15 C12.54 -0.32, 11.33 0.63, 11.41 0.94" stroke="#1e1e1e" stroke-width="2" fill="none"></path></g><g stroke-linecap="round" transform="translate(2058 951.8349609649733) rotate(0 17 15.5)"><path d="M21.07 -0.07 C24.57 0.4, 28.6 3.56, 30.73 6.22 C32.87 8.89, 34.02 12.54, 33.86 15.89 C33.71 19.24, 32.3 23.9, 29.82 26.32 C27.33 28.73, 22.6 30.09, 18.94 30.41 C15.29 30.72, 10.86 29.96, 7.91 28.22 C4.96 26.47, 2.38 23, 1.25 19.95 C0.13 16.9, -0.09 12.97, 1.16 9.94 C2.41 6.9, 5.46 3.33, 8.76 1.73 C12.06 0.14, 18.82 0.51, 20.97 0.38 C23.11 0.25, 21.68 0.62, 21.62 0.93 M21.33 -0.12 C24.76 0.45, 27.85 3.55, 29.94 6.18 C32.03 8.82, 33.98 12.33, 33.87 15.71 C33.76 19.09, 31.68 24.01, 29.29 26.48 C26.89 28.95, 23.06 30.2, 19.5 30.55 C15.94 30.9, 11.01 30.31, 7.93 28.58 C4.85 26.84, 2.15 23.29, 1.03 20.12 C-0.08 16.96, -0.1 12.77, 1.25 9.6 C2.6 6.43, 5.94 2.78, 9.12 1.13 C12.29 -0.53, 18.3 -0.25, 20.29 -0.34 C22.28 -0.43, 21.01 0.13, 21.04 0.61" stroke="#1e1e1e" stroke-width="2" fill="none"></path></g><g stroke-linecap="round" transform="translate(2052 758.8349609649733) rotate(0 18 14.5)"><path d="M15.92 0.33 C19.55 -0.21, 25.25 0.7, 28.45 2.47 C31.66 4.23, 34.08 7.98, 35.12 10.94 C36.17 13.91, 36.37 17.48, 34.72 20.26 C33.07 23.04, 28.83 26.17, 25.22 27.63 C21.61 29.08, 16.73 29.79, 13.04 28.97 C9.34 28.16, 5.16 25.42, 3.05 22.75 C0.94 20.08, 0.04 16.05, 0.39 12.95 C0.75 9.84, 2.35 6.27, 5.18 4.12 C8.02 1.98, 15.14 0.75, 17.38 0.09 C19.62 -0.56, 18.55 -0.1, 18.62 0.2 M14.4 -0.27 C18.06 -1.11, 23.82 0.24, 27.17 1.83 C30.52 3.41, 33.13 6.26, 34.52 9.23 C35.9 12.2, 36.79 16.68, 35.48 19.65 C34.18 22.62, 30.14 25.49, 26.7 27.05 C23.26 28.61, 18.61 29.54, 14.85 29 C11.08 28.47, 6.59 26.23, 4.11 23.82 C1.63 21.41, 0.06 17.7, -0.04 14.55 C-0.13 11.39, 1.18 7.18, 3.55 4.87 C5.91 2.57, 12.28 1.42, 14.17 0.73 C16.06 0.05, 14.61 0.69, 14.88 0.77" stroke="#1e1e1e" stroke-width="2" fill="none"></path></g><g stroke-linecap="round" transform="translate(2055 549.8349609649733) rotate(0 12 15.5)"><path d="M13.52 0.28 C15.88 0.44, 18.72 2.07, 20.51 4.49 C22.29 6.91, 24.08 11.51, 24.23 14.79 C24.37 18.07, 22.94 21.59, 21.39 24.15 C19.84 26.72, 17.28 29.32, 14.92 30.16 C12.55 31, 9.53 30.52, 7.19 29.18 C4.86 27.85, 2.1 25.14, 0.92 22.14 C-0.26 19.14, -0.59 14.46, 0.11 11.2 C0.81 7.93, 2.84 4.4, 5.12 2.57 C7.4 0.74, 12.31 0.49, 13.8 0.21 C15.28 -0.07, 14 0.68, 14.02 0.87 M9.99 0.3 C12.25 -0.28, 16.18 0.21, 18.37 2.07 C20.57 3.93, 22.34 8.28, 23.16 11.46 C23.98 14.65, 24.21 18.22, 23.27 21.18 C22.33 24.14, 19.78 27.68, 17.49 29.24 C15.21 30.8, 12.09 31.24, 9.58 30.51 C7.07 29.78, 4.03 27.59, 2.44 24.85 C0.85 22.12, -0.02 17.53, 0.05 14.1 C0.12 10.68, 1.05 6.63, 2.87 4.29 C4.7 1.95, 9.68 0.62, 10.99 0.08 C12.31 -0.46, 10.91 0.86, 10.77 1.07" stroke="#1e1e1e" stroke-width="2" fill="none"></path></g><g stroke-linecap="round"><g transform="translate(2070 989.8349609649733) rotate(0 3.796420856937857 75.33596814837304)"><path d="M-0.44 0.5 C0.87 25.32, 6.68 124.8, 8.03 149.96 M1.53 -0.28 C2.75 25.17, 6.68 126.01, 7.63 150.95" stroke="#1e1e1e" stroke-width="2" fill="none"></path></g><g transform="translate(2070 989.8349609649733) rotate(0 3.796420856937857 75.33596814837304)"><path d="M-1.83 127.81 C2.19 136.87, 2.61 143.56, 7.63 150.95 M-1.83 127.81 C1.82 136.43, 3.88 142.61, 7.63 150.95" stroke="#1e1e1e" stroke-width="2" fill="none"></path></g><g transform="translate(2070 989.8349609649733) rotate(0 3.796420856937857 75.33596814837304)"><path d="M15.26 127.15 C13.89 136.36, 8.91 143.25, 7.63 150.95 M15.26 127.15 C13.13 135.91, 9.4 142.31, 7.63 150.95" stroke="#1e1e1e" stroke-width="2" fill="none"></path></g></g><mask></mask><g stroke-linecap="round"><g transform="translate(2070.9999983623247 791.8348283132877) rotate(0 1.1986011754427182 80.14387842378468)"><path d="M0.5 1.03 C0.48 27.73, 0.6 133.46, 0.93 159.76 M-0.69 0.53 C-0.44 26.92, 2.66 131.41, 3.09 157.98" stroke="#1e1e1e" stroke-width="2" fill="none"></path></g><g transform="translate(2070.9999983623247 791.8348283132877) rotate(0 1.1986011754427182 80.14387842378468)"><path d="M-6.01 134.7 C-0.86 141.92, 2.03 153.41, 3.09 157.98 M-6.01 134.7 C-2.87 140.43, -2.02 147.5, 3.09 157.98" stroke="#1e1e1e" stroke-width="2" fill="none"></path></g><g transform="translate(2070.9999983623247 791.8348283132877) rotate(0 1.1986011754427182 80.14387842378468)"><path d="M11.09 134.29 C9.63 141.74, 5.91 153.39, 3.09 157.98 M11.09 134.29 C9.51 140.23, 5.66 147.41, 3.09 157.98" stroke="#1e1e1e" stroke-width="2" fill="none"></path></g></g><mask></mask><g stroke-linecap="round"><g transform="translate(2063.9999386216223 581.832413762308) rotate(0 2.3841517778803336 82.71239026193342)"><path d="M1.03 -1.04 C1.88 26.62, 4.21 138.72, 4.65 166.46 M0.11 1.03 C0.9 28.28, 3.6 137.02, 4.05 164.58" stroke="#1e1e1e" stroke-width="2" fill="none"></path></g><g transform="translate(2063.9999386216223 581.832413762308) rotate(0 2.3841517778803336 82.71239026193342)"><path d="M-5 141.28 C-4.25 148.43, 0.63 152.99, 4.05 164.58 M-5 141.28 C-3.24 146.16, -0.31 152.17, 4.05 164.58" stroke="#1e1e1e" stroke-width="2" fill="none"></path></g><g transform="translate(2063.9999386216223 581.832413762308) rotate(0 2.3841517778803336 82.71239026193342)"><path d="M12.1 140.92 C8.35 148.31, 8.73 152.97, 4.05 164.58 M12.1 140.92 C9.56 146.02, 8.19 152.12, 4.05 164.58" stroke="#1e1e1e" stroke-width="2" fill="none"></path></g></g><mask></mask><g transform="translate(1961.1686387812242 329.3341277278953) rotate(0 33.81936264038086 16.000833237078055)"><text x="0" y="22.426767865088603" font-family="Virgil, Segoe UI Emoji" font-size="25.601333179324886px" fill="#1e1e1e" text-anchor="start" style="white-space: pre;" direction="ltr" dominant-baseline="alphabetic">"main"</text></g><g transform="translate(1882 951.8349609649733) rotate(0 75.61399841308594 17.5)"><text x="0" y="24.528" font-family="Virgil, Segoe UI Emoji" font-size="28px" fill="#1e1e1e" text-anchor="start" style="white-space: pre;" direction="ltr" dominant-baseline="alphabetic">...234fa23</text></g><g transform="translate(1872 561.8349609649733) rotate(0 74.21400451660156 17.5)"><text x="0" y="24.528" font-family="Virgil, Segoe UI Emoji" font-size="28px" fill="#1e1e1e" text-anchor="start" style="white-space: pre;" direction="ltr" dominant-baseline="alphabetic">...aa4fa24</text></g><g transform="translate(2260.168638781224 125.3341277278953) rotate(0 57.43659210205078 16.00083323707804)"><text x="0" y="22.426767865088603" font-family="Virgil, Segoe UI Emoji" font-size="25.601333179324886px" fill="#1e1e1e" text-anchor="start" style="white-space: pre;" direction="ltr" dominant-baseline="alphabetic">"tutorial"</text></g><g stroke-linecap="round" transform="translate(2227 351.83496096497333) rotate(0 12 15.5)"><path d="M10.23 -0.34 C12.59 -1.04, 16.27 0.28, 18.55 2.13 C20.84 3.97, 23.2 7.43, 23.93 10.73 C24.66 14.02, 24.07 18.8, 22.93 21.9 C21.79 24.99, 19.39 27.84, 17.09 29.28 C14.79 30.72, 11.56 31.25, 9.13 30.51 C6.69 29.78, 4.03 27.46, 2.5 24.87 C0.96 22.28, -0.27 18.37, -0.08 14.99 C0.11 11.61, 1.85 6.98, 3.66 4.57 C5.46 2.16, 9.49 1.3, 10.74 0.54 C11.99 -0.22, 11.07 -0.17, 11.15 0 M10.63 -0.18 C13.08 -0.89, 16.27 0.57, 18.44 2.39 C20.61 4.2, 22.89 7.56, 23.67 10.73 C24.44 13.89, 24.09 18.41, 23.08 21.39 C22.06 24.37, 19.91 27.16, 17.58 28.59 C15.25 30.01, 11.53 30.56, 9.09 29.94 C6.66 29.33, 4.46 27.31, 2.99 24.89 C1.52 22.48, 0.32 18.83, 0.27 15.47 C0.23 12.1, 0.96 7.13, 2.7 4.7 C4.44 2.26, 9.37 1.47, 10.72 0.88 C12.07 0.28, 10.92 0.94, 10.81 1.13" stroke="#1e1e1e" stroke-width="2" fill="none"></path></g><g stroke-linecap="round"><g transform="translate(2226.677426758547 374.05306022346815) rotate(0 -79.46963246557311 80.0475894315032)"><path d="M-0.29 -0.58 C-27.08 26.12, -133.21 134.13, -160.07 160.68 M1.75 1.72 C-25.19 28.06, -133.91 132.74, -160.69 159.03" stroke="#1e1e1e" stroke-width="2" fill="none"></path></g><g transform="translate(2226.677426758547 374.05306022346815) rotate(0 -79.46963246557311 80.0475894315032)"><path d="M-149.8 136.53 C-154.54 145.49, -155.94 151.18, -160.69 159.03 M-149.8 136.53 C-151.17 140.65, -154.58 146.52, -160.69 159.03" stroke="#1e1e1e" stroke-width="2" fill="none"></path></g><g transform="translate(2226.677426758547 374.05306022346815) rotate(0 -79.46963246557311 80.0475894315032)"><path d="M-137.88 148.8 C-146.9 153.39, -152.52 154.72, -160.69 159.03 M-137.88 148.8 C-141.75 150.27, -147.65 153.57, -160.69 159.03" stroke="#1e1e1e" stroke-width="2" fill="none"></path></g></g><mask></mask><g stroke-linecap="round" transform="translate(2046 334.83496096497333) rotate(0 12 15.5)"><path d="M14.24 -0.11 C16.8 0.32, 20.13 2.75, 21.74 5.43 C23.35 8.12, 24.05 12.66, 23.89 16.02 C23.72 19.38, 22.43 23.12, 20.75 25.57 C19.06 28.02, 16.24 30.16, 13.77 30.71 C11.31 31.26, 8.16 30.51, 5.96 28.88 C3.76 27.25, 1.37 24.14, 0.58 20.93 C-0.22 17.73, 0.32 12.75, 1.2 9.67 C2.08 6.59, 3.67 4.07, 5.87 2.47 C8.07 0.87, 12.84 0.35, 14.4 0.07 C15.96 -0.21, 15.27 0.5, 15.24 0.78 M14.24 0.24 C16.67 0.67, 19.89 3.02, 21.52 5.59 C23.14 8.16, 24.05 12.44, 23.99 15.67 C23.92 18.9, 22.85 22.56, 21.12 24.96 C19.4 27.37, 16.07 29.47, 13.61 30.11 C11.15 30.74, 8.49 30.25, 6.37 28.77 C4.26 27.29, 1.94 24.42, 0.93 21.24 C-0.07 18.06, -0.58 12.75, 0.33 9.67 C1.25 6.58, 4.06 4.17, 6.43 2.72 C8.81 1.27, 13.38 1.26, 14.59 0.96 C15.81 0.66, 13.78 0.81, 13.71 0.91" stroke="#1e1e1e" stroke-width="2" fill="none"></path></g><g stroke-linecap="round"><g transform="translate(2055 366.83496096497333) rotate(0 2.5106626794113254 83.09819787111134)"><path d="M0.61 0.9 C1.2 28.48, 2.67 137.54, 3.24 164.91 M-0.53 0.32 C0.47 28.06, 4.92 138.27, 5.55 165.87" stroke="#1e1e1e" stroke-width="2" fill="none"></path></g><g transform="translate(2055 366.83496096497333) rotate(0 2.5106626794113254 83.09819787111134)"><path d="M-3.77 142.68 C0.18 147.75, -0.56 155.46, 5.55 165.87 M-3.77 142.68 C-1.69 148.59, -0.08 153.07, 5.55 165.87" stroke="#1e1e1e" stroke-width="2" fill="none"></path></g><g transform="translate(2055 366.83496096497333) rotate(0 2.5106626794113254 83.09819787111134)"><path d="M13.32 142.11 C12.56 147.43, 7.11 155.29, 5.55 165.87 M13.32 142.11 C11.57 148.07, 9.35 152.67, 5.55 165.87" stroke="#1e1e1e" stroke-width="2" fill="none"></path></g></g><mask></mask><g stroke-linecap="round" transform="translate(2223 143.83496096497333) rotate(0 12 15.5)"><path d="M9.75 0.15 C12.07 -0.64, 15.17 0.48, 17.33 2.02 C19.49 3.56, 21.7 6.42, 22.69 9.4 C23.69 12.39, 23.99 16.75, 23.31 19.94 C22.63 23.13, 20.77 26.67, 18.62 28.55 C16.48 30.42, 12.94 31.67, 10.44 31.2 C7.95 30.73, 5.43 28.12, 3.65 25.72 C1.87 23.32, 0.02 20.12, -0.24 16.8 C-0.5 13.49, 0.44 8.61, 2.1 5.85 C3.77 3.08, 8.48 1.15, 9.76 0.23 C11.03 -0.69, 9.67 0.04, 9.76 0.33 M10.99 -0.03 C13.4 -0.55, 16.62 0.86, 18.71 2.63 C20.81 4.4, 22.92 7.51, 23.58 10.59 C24.23 13.68, 23.61 18, 22.64 21.13 C21.67 24.27, 19.97 27.72, 17.76 29.4 C15.54 31.07, 11.99 32.03, 9.34 31.17 C6.69 30.31, 3.34 26.93, 1.83 24.25 C0.33 21.58, 0.01 18.28, 0.32 15.14 C0.64 12, 2.07 7.86, 3.73 5.4 C5.39 2.95, 9.08 1.29, 10.28 0.42 C11.47 -0.46, 10.89 -0.08, 10.92 0.16" stroke="#1e1e1e" stroke-width="2" fill="none"></path></g><g stroke-linecap="round"><g transform="translate(2232 175.83496096497333) rotate(0 1.6303660955281885 82.53265555189923)"><path d="M-0.76 -1.09 C-0.19 26.28, 3.05 137.35, 4.02 165.09 M1.04 0.95 C1.4 28.36, 2.45 138.58, 3.09 166.16" stroke="#1e1e1e" stroke-width="2" fill="none"></path></g><g transform="translate(2232 175.83496096497333) rotate(0 1.6303660955281885 82.53265555189923)"><path d="M-5.82 142.8 C-4.34 151.09, -0.91 161.06, 3.09 166.16 M-5.82 142.8 C-4.35 148.51, -1.75 154.26, 3.09 166.16" stroke="#1e1e1e" stroke-width="2" fill="none"></path></g><g transform="translate(2232 175.83496096497333) rotate(0 1.6303660955281885 82.53265555189923)"><path d="M11.28 142.53 C6.76 150.81, 4.2 160.87, 3.09 166.16 M11.28 142.53 C8.47 148.43, 6.79 154.24, 3.09 166.16" stroke="#1e1e1e" stroke-width="2" fill="none"></path></g></g><mask></mask><g stroke-linecap="round" transform="translate(2593.0946520283064 1154.8856625850008) rotate(0 10.5 13.5)"><path d="M9.02 0.46 C11.04 0.01, 14.22 0.63, 16.07 2.18 C17.92 3.74, 19.37 7.07, 20.11 9.79 C20.85 12.5, 21.36 15.85, 20.51 18.48 C19.66 21.1, 17.1 24.15, 15.01 25.54 C12.91 26.93, 10.1 27.56, 7.93 26.84 C5.76 26.12, 3.31 23.49, 1.96 21.25 C0.61 19, -0.31 16.17, -0.15 13.37 C0 10.56, 1.35 6.69, 2.88 4.4 C4.4 2.11, 7.92 0.38, 8.99 -0.37 C10.07 -1.11, 9.18 -0.42, 9.34 -0.05 M7.91 0.64 C9.93 0.04, 12.91 0.49, 15.04 1.88 C17.18 3.27, 19.74 6.2, 20.73 8.97 C21.72 11.74, 21.89 15.69, 20.97 18.5 C20.06 21.31, 17.17 24.32, 15.24 25.81 C13.32 27.29, 11.64 27.99, 9.43 27.4 C7.22 26.81, 3.51 24.47, 2 22.25 C0.49 20.02, 0.33 16.85, 0.38 14.06 C0.42 11.27, 0.91 7.89, 2.28 5.5 C3.64 3.11, 7.54 0.66, 8.57 -0.29 C9.6 -1.23, 8.4 -0.48, 8.47 -0.17" stroke="#1e1e1e" stroke-width="2" fill="none"></path></g><g stroke-linecap="round" transform="translate(2588.0946520283064 965.8856625850008) rotate(0 17 15.5)"><path d="M13.91 0.47 C17.19 -0.47, 21.86 -0.18, 24.95 1.31 C28.05 2.79, 31.17 6.29, 32.47 9.38 C33.78 12.47, 33.82 16.63, 32.8 19.85 C31.78 23.08, 29.37 26.96, 26.34 28.72 C23.32 30.48, 18.32 30.79, 14.63 30.39 C10.95 29.99, 6.64 28.75, 4.21 26.33 C1.79 23.9, 0.13 19.27, 0.09 15.84 C0.05 12.41, 1.63 8.32, 3.95 5.76 C6.27 3.21, 12.12 1.31, 13.98 0.5 C15.85 -0.31, 15.07 0.65, 15.15 0.89 M20.79 0.74 C24.31 1.26, 28.35 3.22, 30.55 5.7 C32.76 8.19, 34.16 12.17, 34.01 15.66 C33.85 19.14, 32.04 24.08, 29.64 26.62 C27.23 29.16, 23.12 30.64, 19.56 30.92 C16.01 31.2, 11.4 30.09, 8.29 28.3 C5.18 26.51, 1.99 23.38, 0.89 20.18 C-0.2 16.97, 0.41 12.1, 1.72 9.08 C3.03 6.05, 5.56 3.43, 8.78 2.02 C12 0.6, 19.14 0.82, 21.02 0.58 C22.9 0.34, 20.19 0.26, 20.06 0.58" stroke="#1e1e1e" stroke-width="2" fill="none"></path></g><g stroke-linecap="round" transform="translate(2582.0946520283064 772.8856625850008) rotate(0 18 14.5)"><path d="M20.85 0.43 C24.51 0.57, 28.66 2.14, 31.21 4.51 C33.76 6.88, 35.97 11.49, 36.17 14.64 C36.37 17.8, 34.8 21.12, 32.41 23.44 C30.02 25.77, 25.65 28.02, 21.82 28.59 C17.98 29.17, 12.82 28.36, 9.39 26.91 C5.97 25.45, 2.69 22.64, 1.25 19.86 C-0.2 17.09, -0.55 13.23, 0.73 10.24 C2.02 7.25, 5.58 3.67, 8.97 1.93 C12.36 0.19, 18.92 -0.01, 21.07 -0.21 C23.21 -0.42, 21.77 0.31, 21.82 0.68 M22.51 0.26 C26.2 0.59, 30.33 2.86, 32.6 5.37 C34.88 7.87, 36.28 12.2, 36.17 15.29 C36.06 18.39, 34.58 21.53, 31.97 23.91 C29.36 26.3, 24.46 29.18, 20.5 29.59 C16.54 30.01, 11.55 28.17, 8.2 26.42 C4.86 24.68, 1.63 22.07, 0.44 19.14 C-0.75 16.21, -0.4 11.66, 1.07 8.86 C2.54 6.06, 5.81 3.73, 9.25 2.32 C12.7 0.91, 19.5 0.63, 21.72 0.38 C23.93 0.13, 22.6 0.53, 22.55 0.83" stroke="#1e1e1e" stroke-width="2" fill="none"></path></g><g stroke-linecap="round" transform="translate(2585.0946520283064 563.8856625850008) rotate(0 12 15.5)"><path d="M15.01 0.6 C17.46 1.18, 20.55 3.55, 22 6.2 C23.45 8.85, 23.94 13.13, 23.69 16.5 C23.44 19.87, 22.18 24.07, 20.51 26.4 C18.84 28.73, 16.13 30.11, 13.66 30.49 C11.19 30.86, 7.85 30.39, 5.7 28.65 C3.54 26.91, 1.52 23.32, 0.73 20.06 C-0.05 16.81, 0.03 12.21, 0.99 9.12 C1.96 6.03, 4.19 2.96, 6.51 1.54 C8.82 0.11, 13.41 0.75, 14.88 0.58 C16.34 0.41, 15.25 0.3, 15.3 0.52 M10.23 0.25 C12.85 -0.43, 16.92 0.75, 19.16 2.42 C21.41 4.1, 23.14 7.23, 23.71 10.3 C24.28 13.38, 23.6 17.63, 22.59 20.88 C21.57 24.14, 19.87 28.1, 17.64 29.83 C15.4 31.56, 11.62 32.05, 9.17 31.28 C6.72 30.51, 4.34 27.89, 2.93 25.21 C1.53 22.53, 0.78 18.51, 0.73 15.21 C0.69 11.91, 0.95 7.9, 2.64 5.41 C4.33 2.91, 9.44 1.14, 10.85 0.23 C12.25 -0.69, 11.19 -0.42, 11.08 -0.09" stroke="#1e1e1e" stroke-width="2" fill="none"></path></g><g stroke-linecap="round"><g transform="translate(2600.0946520283064 1003.8856625850008) rotate(0 3.104766047326848 74.61296772928907)"><path d="M0.49 -0.39 C1.68 24.53, 5.94 124.48, 6.92 149.9 M-0.71 -1.64 C0.33 23.36, 4.94 125.53, 5.92 150.87" stroke="#1e1e1e" stroke-width="2" fill="none"></path></g><g transform="translate(2600.0946520283064 1003.8856625850008) rotate(0 3.104766047326848 74.61296772928907)"><path d="M-3.62 127.76 C-1.49 134.14, 0.05 139.73, 5.92 150.87 M-3.62 127.76 C-0.23 136.27, 3.82 145.3, 5.92 150.87" stroke="#1e1e1e" stroke-width="2" fill="none"></path></g><g transform="translate(2600.0946520283064 1003.8856625850008) rotate(0 3.104766047326848 74.61296772928907)"><path d="M13.47 127.03 C10.75 133.69, 7.44 139.49, 5.92 150.87 M13.47 127.03 C10.11 135.81, 7.41 145.13, 5.92 150.87" stroke="#1e1e1e" stroke-width="2" fill="none"></path></g></g><mask></mask><g stroke-linecap="round"><g transform="translate(2601.094650390631 805.8855299333152) rotate(0 1.0094235908877636 80.03977724454252)"><path d="M-0.57 0.76 C-0.04 27.38, 2.07 133.73, 2.59 159.97 M1.33 0.11 C1.82 26.38, 1.85 131.82, 1.97 158.3" stroke="#1e1e1e" stroke-width="2" fill="none"></path></g><g transform="translate(2601.094650390631 805.8855299333152) rotate(0 1.0094235908877636 80.03977724454252)"><path d="M-6.64 134.82 C-3.18 141.76, -0.86 147.5, 1.97 158.3 M-6.64 134.82 C-5.04 141.05, -3.42 145.3, 1.97 158.3" stroke="#1e1e1e" stroke-width="2" fill="none"></path></g><g transform="translate(2601.094650390631 805.8855299333152) rotate(0 1.0094235908877636 80.03977724454252)"><path d="M10.46 134.78 C9.65 141.65, 7.7 147.4, 1.97 158.3 M10.46 134.78 C8.28 140.93, 6.1 145.19, 1.97 158.3" stroke="#1e1e1e" stroke-width="2" fill="none"></path></g></g><mask></mask><g stroke-linecap="round"><g transform="translate(2594.0945906499287 595.8831153823354) rotate(0 2.861283755706836 83.10884309151979)"><path d="M1.1 0.38 C1.73 28.2, 2.65 138.91, 3.21 166.68 M0.22 -0.46 C1.29 27.04, 4.88 137.31, 5.5 164.91" stroke="#1e1e1e" stroke-width="2" fill="none"></path></g><g transform="translate(2594.0945906499287 595.8831153823354) rotate(0 2.861283755706836 83.10884309151979)"><path d="M-3.71 141.67 C-0.81 146.09, 1.99 154.02, 5.5 164.91 M-3.71 141.67 C0.1 150.06, 3.89 159.83, 5.5 164.91" stroke="#1e1e1e" stroke-width="2" fill="none"></path></g><g transform="translate(2594.0945906499287 595.8831153823354) rotate(0 2.861283755706836 83.10884309151979)"><path d="M13.38 141.18 C12 145.89, 10.5 153.94, 5.5 164.91 M13.38 141.18 C10.69 149.66, 8 159.62, 5.5 164.91" stroke="#1e1e1e" stroke-width="2" fill="none"></path></g></g><mask></mask><g transform="translate(2455.4978685040064 10) rotate(0 33.81936264038086 16.00083323707804)"><text x="0" y="22.426767865088603" font-family="Virgil, Segoe UI Emoji" font-size="25.601333179324886px" fill="#1e1e1e" text-anchor="start" style="white-space: pre;" direction="ltr" dominant-baseline="alphabetic">"main"</text></g><g transform="translate(2790.2632908095306 139.38482934792268) rotate(0 57.43659210205078 16.00083323707807)"><text x="0" y="22.426767865088603" font-family="Virgil, Segoe UI Emoji" font-size="25.601333179324886px" fill="#1e1e1e" text-anchor="start" style="white-space: pre;" direction="ltr" dominant-baseline="alphabetic">"tutorial"</text></g><g stroke-linecap="round" transform="translate(2757.0946520283064 365.8856625850007) rotate(0 12 15.5)"><path d="M14.59 0.62 C16.98 1.21, 19.96 3.55, 21.48 6.27 C23 8.99, 23.85 13.64, 23.69 16.97 C23.54 20.29, 22.2 23.9, 20.56 26.24 C18.91 28.59, 16.35 30.64, 13.8 31.04 C11.25 31.45, 7.53 30.49, 5.27 28.65 C3.02 26.81, 0.94 23.29, 0.27 20.01 C-0.39 16.73, 0.19 12.02, 1.27 8.97 C2.36 5.92, 4.44 3.14, 6.8 1.71 C9.16 0.27, 13.93 0.54, 15.43 0.36 C16.93 0.18, 15.98 0.39, 15.82 0.63 M10.1 0.59 C12.58 -0.06, 16.07 1.29, 18.39 2.79 C20.7 4.28, 23.24 6.58, 23.99 9.56 C24.74 12.54, 24 17.57, 22.9 20.68 C21.79 23.78, 19.45 26.41, 17.38 28.19 C15.31 29.97, 12.88 31.91, 10.48 31.38 C8.08 30.85, 4.79 27.67, 2.99 25 C1.19 22.33, -0.3 18.6, -0.31 15.37 C-0.32 12.13, 1.3 8.13, 2.94 5.59 C4.59 3.04, 8.29 0.89, 9.55 0.1 C10.81 -0.68, 10.5 0.61, 10.5 0.87" stroke="#1e1e1e" stroke-width="2" fill="none"></path></g><g stroke-linecap="round"><g transform="translate(2756.7720787868534 388.10376184349553) rotate(0 -80.48903745421626 80.47237881987854)"><path d="M-0.82 1.11 C-27.52 27.69, -134.2 133.78, -160.88 160.3 M0.96 0.64 C-25.87 26.79, -134.82 132.21, -161.94 158.45" stroke="#1e1e1e" stroke-width="2" fill="none"></path></g><g transform="translate(2756.7720787868534 388.10376184349553) rotate(0 -80.48903745421626 80.47237881987854)"><path d="M-151 135.97 C-151.71 141.12, -155.39 146.7, -161.94 158.45 M-151 135.97 C-155.18 143.81, -157.78 151.54, -161.94 158.45" stroke="#1e1e1e" stroke-width="2" fill="none"></path></g><g transform="translate(2756.7720787868534 388.10376184349553) rotate(0 -80.48903745421626 80.47237881987854)"><path d="M-139.11 148.26 C-142.84 150.29, -149.47 152.82, -161.94 158.45 M-139.11 148.26 C-147.24 152.01, -153.84 155.6, -161.94 158.45" stroke="#1e1e1e" stroke-width="2" fill="none"></path></g></g><mask></mask><g stroke-linecap="round" transform="translate(2576.0946520283064 348.8856625850007) rotate(0 12 15.5)"><path d="M14.93 0.24 C17.45 0.76, 20.63 3.6, 22.2 6.29 C23.76 8.98, 24.64 13.04, 24.3 16.37 C23.96 19.71, 22.02 23.9, 20.15 26.3 C18.29 28.71, 15.52 30.45, 13.1 30.8 C10.67 31.15, 7.68 30.24, 5.6 28.41 C3.52 26.57, 1.33 23.02, 0.62 19.78 C-0.1 16.54, 0.26 11.96, 1.3 8.96 C2.34 5.96, 4.44 3.18, 6.87 1.77 C9.3 0.36, 14.26 0.58, 15.86 0.51 C17.46 0.44, 16.53 1.04, 16.49 1.36 M11.56 0.55 C14.06 0.2, 17.02 1.38, 19.07 3.26 C21.12 5.14, 23.22 8.6, 23.87 11.82 C24.53 15.04, 24.3 19.69, 23 22.58 C21.69 25.48, 18.48 27.95, 16.06 29.18 C13.64 30.42, 10.78 30.92, 8.49 29.99 C6.21 29.07, 3.85 26.52, 2.35 23.64 C0.85 20.75, -0.84 16.01, -0.51 12.69 C-0.17 9.37, 2.27 5.89, 4.36 3.71 C6.45 1.53, 10.84 0.13, 12.03 -0.39 C13.23 -0.92, 11.58 0.14, 11.54 0.54" stroke="#1e1e1e" stroke-width="2" fill="none"></path></g><g stroke-linecap="round"><g transform="translate(2585.0946520283064 380.8856625850007) rotate(0 1.3005135578196132 83.59994951230475)"><path d="M0.32 1.17 C1.05 28.8, 2.95 139.08, 3.58 166.46 M-0.98 0.74 C-0.37 27.94, 1.69 136.95, 2.41 164.58" stroke="#1e1e1e" stroke-width="2" fill="none"></path></g><g transform="translate(2585.0946520283064 380.8856625850007) rotate(0 1.3005135578196132 83.59994951230475)"><path d="M-6.66 141.28 C-2.48 145.94, -1.57 152.14, 2.41 164.58 M-6.66 141.28 C-3.45 146.85, -2.75 153.3, 2.41 164.58" stroke="#1e1e1e" stroke-width="2" fill="none"></path></g><g transform="translate(2585.0946520283064 380.8856625850007) rotate(0 1.3005135578196132 83.59994951230475)"><path d="M10.44 140.9 C10.67 145.69, 7.63 151.99, 2.41 164.58 M10.44 140.9 C9.27 146.54, 5.6 153.08, 2.41 164.58" stroke="#1e1e1e" stroke-width="2" fill="none"></path></g></g><mask></mask><g stroke-linecap="round" transform="translate(2753.0946520283064 157.88566258500072) rotate(0 12 15.5)"><path d="M12.27 0.14 C14.66 -0.12, 17.93 1.14, 19.79 3.32 C21.64 5.5, 22.98 9.92, 23.38 13.21 C23.79 16.51, 23.51 20.29, 22.23 23.09 C20.95 25.89, 18.1 28.85, 15.7 30.01 C13.29 31.17, 10.23 31.18, 7.8 30.05 C5.36 28.91, 2.28 26.16, 1.09 23.22 C-0.1 20.27, 0.17 15.72, 0.68 12.37 C1.2 9.02, 2.16 5.26, 4.17 3.12 C6.18 0.98, 11.3 0.05, 12.77 -0.45 C14.24 -0.96, 13.04 -0.24, 13.01 0.09 M9.88 0.47 C12.26 -0.37, 16.02 -0.19, 18.3 1.54 C20.59 3.27, 22.74 7.54, 23.57 10.86 C24.4 14.19, 24.37 18.51, 23.31 21.5 C22.25 24.49, 19.57 27.23, 17.2 28.79 C14.83 30.36, 11.5 31.54, 9.1 30.89 C6.71 30.23, 4.42 27.37, 2.83 24.89 C1.24 22.41, -0.59 19.36, -0.46 15.98 C-0.32 12.61, 2.01 7.2, 3.65 4.65 C5.28 2.09, 8.34 1.4, 9.36 0.67 C10.39 -0.06, 9.74 -0.02, 9.8 0.24" stroke="#1e1e1e" stroke-width="2" fill="none"></path></g><g stroke-linecap="round"><g transform="translate(2762.0946520283064 189.88566258500072) rotate(0 1.9680046897940429 82.8643810478039)"><path d="M0.56 0.09 C1.29 27.84, 3.95 138.93, 4.54 166.64 M-0.6 -0.91 C0.01 26.48, 3.21 136.72, 3.88 164.85" stroke="#1e1e1e" stroke-width="2" fill="none"></path></g><g transform="translate(2762.0946520283064 189.88566258500072) rotate(0 1.9680046897940429 82.8643810478039)"><path d="M-5.3 141.59 C-2.26 149.68, 1.5 156.18, 3.88 164.85 M-5.3 141.59 C-3.28 149.53, 0.57 156.08, 3.88 164.85" stroke="#1e1e1e" stroke-width="2" fill="none"></path></g><g transform="translate(2762.0946520283064 189.88566258500072) rotate(0 1.9680046897940429 82.8643810478039)"><path d="M11.8 141.13 C9.52 149.45, 7.96 156.08, 3.88 164.85 M11.8 141.13 C8.21 149.05, 6.47 155.76, 3.88 164.85" stroke="#1e1e1e" stroke-width="2" fill="none"></path></g></g><mask></mask><g stroke-linecap="round" transform="translate(2559.265687294049 19.2534147338979) rotate(0 15.96670638639489 20.437384174585304)"><path d="M12.75 0.92 C15.76 -0.28, 20.09 0.03, 23.12 2.07 C26.16 4.12, 29.69 9.14, 30.97 13.19 C32.25 17.23, 31.89 22.25, 30.8 26.36 C29.72 30.47, 27.26 35.4, 24.46 37.85 C21.66 40.3, 17.33 41.63, 14.01 41.05 C10.7 40.47, 6.95 37.75, 4.57 34.39 C2.19 31.03, -0.13 25.26, -0.25 20.89 C-0.38 16.53, 1.46 11.62, 3.84 8.2 C6.22 4.79, 12.05 1.77, 14.04 0.41 C16.03 -0.96, 15.8 -0.2, 15.77 0.03 M18.24 0.01 C21.52 0.28, 25.1 3.38, 27.46 6.55 C29.82 9.71, 32.09 14.65, 32.42 19.01 C32.74 23.36, 31.47 29.06, 29.4 32.65 C27.33 36.25, 23.3 39.47, 20 40.6 C16.7 41.73, 12.79 41.48, 9.59 39.44 C6.4 37.39, 2.28 32.5, 0.83 28.36 C-0.62 24.21, -0.27 18.63, 0.9 14.56 C2.06 10.49, 4.88 6.24, 7.8 3.95 C10.72 1.65, 16.89 1.46, 18.42 0.79 C19.94 0.12, 17.14 -0.3, 16.96 -0.08" stroke="#1e1e1e" stroke-width="2" fill="none"></path></g><g stroke-linecap="round"><g transform="translate(2578.425734957723 67.79220214853797) rotate(0 4.074051969967513 138.8628308540803)"><path d="M0.52 0.96 C1.54 46.77, 5.3 229.86, 6.64 275.82 M-0.66 0.41 C0.68 46.34, 7.32 231.59, 8.81 277.31" stroke="#1e1e1e" stroke-width="2" fill="none"></path></g><g transform="translate(2578.425734957723 67.79220214853797) rotate(0 4.074051969967513 138.8628308540803)"><path d="M-0.54 254.13 C4.43 260.3, 5.89 271.43, 8.81 277.31 M-0.54 254.13 C2.36 263.25, 7.06 270.24, 8.81 277.31" stroke="#1e1e1e" stroke-width="2" fill="none"></path></g><g transform="translate(2578.425734957723 67.79220214853797) rotate(0 4.074051969967513 138.8628308540803)"><path d="M16.55 253.54 C15.68 259.99, 11.3 271.31, 8.81 277.31 M16.55 253.54 C13.19 262.78, 11.61 269.99, 8.81 277.31" stroke="#1e1e1e" stroke-width="2" fill="none"></path></g></g><mask></mask><g stroke-linecap="round"><g transform="translate(2596.308446110485 51.18682750668739) rotate(0 81.13212129505678 53.889919742993925)"><path d="M0.89 0.58 C27.39 18.56, 133.6 88.98, 160.1 106.71 M-0.11 -0.16 C26.68 18.08, 135.32 89.89, 162.37 107.94" stroke="#1e1e1e" stroke-width="2" fill="none"></path></g><g transform="translate(2596.308446110485 51.18682750668739) rotate(0 81.13212129505678 53.889919742993925)"><path d="M138.07 102.07 C148.46 102.77, 155.99 104.71, 162.37 107.94 M138.07 102.07 C144.41 103.07, 150.58 104.41, 162.37 107.94" stroke="#1e1e1e" stroke-width="2" fill="none"></path></g><g transform="translate(2596.308446110485 51.18682750668739) rotate(0 81.13212129505678 53.889919742993925)"><path d="M147.53 87.82 C154.09 94.15, 157.93 101.64, 162.37 107.94 M147.53 87.82 C151.34 92.76, 154.93 97.99, 162.37 107.94" stroke="#1e1e1e" stroke-width="2" fill="none"></path></g></g><mask></mask><g stroke-linecap="round"><g transform="translate(158.30921902902264 1334.1907962165874) rotate(0 1389.2365117342079 7.082699915693411)"><path d="M-0.57 0.77 C462.47 2.86, 2315.75 10.6, 2779.05 12.97 M1.33 0.13 C464.2 2.3, 2315.55 11.85, 2778.48 14.03" stroke="#1e1e1e" stroke-width="2" fill="none"></path></g><g transform="translate(158.30921902902264 1334.1907962165874) rotate(0 1389.2365117342079 7.082699915693411)"><path d="M2754.94 22.47 C2764.84 20.69, 2770.71 17.86, 2778.48 14.03 M2754.94 22.47 C2764.79 19.13, 2774.23 16.77, 2778.48 14.03" stroke="#1e1e1e" stroke-width="2" fill="none"></path></g><g transform="translate(158.30921902902264 1334.1907962165874) rotate(0 1389.2365117342079 7.082699915693411)"><path d="M2755.03 5.37 C2764.96 9.87, 2770.79 13.33, 2778.48 14.03 M2755.03 5.37 C2764.74 8.73, 2774.16 13.07, 2778.48 14.03" stroke="#1e1e1e" stroke-width="2" fill="none"></path></g></g><mask></mask><g transform="translate(2399.2200454123076 957.7800189582182) rotate(0 75.61399841308594 17.5)"><text x="0" y="24.528" font-family="Virgil, Segoe UI Emoji" font-size="28px" fill="#1e1e1e" text-anchor="start" style="white-space: pre;" direction="ltr" dominant-baseline="alphabetic">...234fa23</text></g><g transform="translate(2389.2200454123076 567.7800189582182) rotate(0 74.21400451660156 17.5)"><text x="0" y="24.528" font-family="Virgil, Segoe UI Emoji" font-size="28px" fill="#1e1e1e" text-anchor="start" style="white-space: pre;" direction="ltr" dominant-baseline="alphabetic">...aa4fa24</text></g></svg>